<svg width="77" height="75" viewBox="0 0 77 75" fill="none" xmlns="http://www.w3.org/2000/svg">
<path fill-rule="evenodd" clip-rule="evenodd" d="M50.6875 1.15393C49.3119 1.77001 46.8784 3.64662 45.2794 5.3248C42.4657 8.27851 42.2324 8.35938 38.0231 7.83333C33.3229 7.24559 33.4596 7.11887 32.5717 12.8912C32.3742 14.1801 31.7897 14.4969 29.994 14.2843C25.0995 13.7074 23.528 18.2509 27.7964 20.6419C30.0974 21.9299 30.3125 22.406 30.119 25.7823C29.9273 29.1104 30.1224 29.5639 31.9598 30.0766C36.3508 31.3004 37.5304 30.9478 38.0698 28.2517C38.4433 26.3826 38.9802 25.7665 40.0498 25.9791C41.1519 26.1983 41.5171 27.0854 41.5171 29.5414C41.5171 33.0295 42.7008 33.8707 47.8813 34.0666C49.9855 34.1466 50.1014 33.919 50.6724 28.586C51.4711 21.1296 51.7004 20.6252 53.7929 21.7449C55.4294 22.621 59.0159 21.5323 60.3297 19.7607C61.0175 18.8337 65.897 20.7194 66.4339 22.12C67.6611 25.3163 70.5014 22.7019 74.8173 14.4052C76.6422 10.8963 76.8923 9.75912 76.1437 8.36105C75.6368 7.41399 74.508 6.63867 73.636 6.63867C72.764 6.63867 69.3067 5.14306 65.9537 3.31565C59.3535 -0.282494 55.2076 -0.8694 50.6875 1.15393ZM65.2951 4.14682C68.9532 5.98591 71.9462 7.6841 71.9462 7.9192C71.9462 8.15513 70.6414 10.9388 69.0466 14.1051L66.1471 19.8633L61.6085 18.5719C57.1701 17.3097 56.94 17.3305 51.1926 19.5264C44.5091 22.0808 42.7817 21.7807 44.9485 18.441C46.775 15.6265 48.8267 14.0859 53.1101 12.311C56.4573 10.9254 56.4748 10.8962 54.0221 10.8271C51.9113 10.767 51.7487 10.6236 52.9801 9.90668C53.7821 9.43898 54.4331 8.41857 54.4265 7.63908C54.4165 6.52696 54.2589 6.46527 53.697 7.3523C52.7016 8.92294 44.4349 9.53653 44.4349 8.03925C44.4349 5.35398 51.7921 0.899658 56.3331 0.835465C57.6044 0.817958 61.6369 2.30773 65.2951 4.14682ZM60.2747 4.53781C60.2747 5.02635 66.6181 8.31019 67.536 8.29602C67.8987 8.29018 66.5623 7.3523 64.5665 6.21183C60.8191 4.07012 60.2747 3.85753 60.2747 4.53781ZM16.185 10.1818C17.5747 12.8229 20.2583 16.1817 20.2583 15.2814C20.2583 14.3835 16.2117 8.30602 15.614 8.30602C15.3847 8.30602 15.6423 9.15054 16.185 10.1818ZM45.0601 10.0601C48.384 10.6178 51.0901 11.2956 51.0717 11.5657C51.0542 11.8366 49.8663 12.8079 48.4324 13.7249C40.8743 18.5577 41.693 24.7027 49.447 21.333C50.5466 20.8553 50.6049 21.5815 49.9063 27.0512C49.0609 33.6747 48.9184 33.8198 44.4891 32.5835C42.7909 32.1091 42.4508 31.4788 42.4049 28.7219C42.3641 26.2409 41.9806 25.3547 40.8518 25.1346C38.881 24.7494 36.9318 26.4301 36.9318 28.5135C36.9318 29.8307 36.5425 30.0716 35.0561 29.6731C34.0248 29.3972 32.6601 29.1654 32.0248 29.1596C31.1345 29.1504 30.9886 28.2809 31.3871 25.3713C31.8531 21.9716 31.7155 21.5223 30.0073 20.8728C24.806 18.8954 25.4513 14.4669 30.7943 15.469C33.4746 15.9717 33.5971 15.8841 33.5971 13.469C33.5971 9.33394 34.375 8.1693 36.8293 8.63282C38.0323 8.86041 41.7363 9.50235 45.0601 10.0601ZM50.8784 9.64324C50.6016 9.92002 49.8821 9.95003 49.281 9.7091C48.6157 9.44315 48.8133 9.24557 49.7846 9.20556C50.6633 9.16971 51.1552 9.36646 50.8784 9.64324ZM14.8395 15.8091C15.1229 16.2676 15.7298 16.6428 16.1883 16.6428C16.6468 16.6428 16.7902 16.2676 16.5068 15.8091C16.2233 15.3506 15.6164 14.9754 15.1579 14.9754C14.6994 14.9754 14.556 15.3506 14.8395 15.8091ZM9.90909 18.2318C10.3284 18.6136 12.1392 19.1496 13.9341 19.4214C15.7281 19.694 16.8536 19.604 16.4351 19.2222C16.0158 18.8403 14.205 18.3043 12.4101 18.0325C10.6161 17.7599 9.49059 17.8499 9.90909 18.2318ZM56.2731 20.9779C55.3736 21.8774 53.6053 21.2221 53.6053 19.9891C53.6053 19.0071 56.4465 18.4827 56.825 19.3956C56.9917 19.7957 56.7433 20.5077 56.2731 20.9779ZM59.441 19.1438C59.441 19.6023 59.0659 19.9775 58.6073 19.9775C58.1488 19.9775 57.7737 19.6023 57.7737 19.1438C57.7737 18.6853 58.1488 18.3101 58.6073 18.3101C59.0659 18.3101 59.441 18.6853 59.441 19.1438ZM35.297 24.3034C34.3625 25.3063 33.6054 26.526 33.6154 27.0129C33.6255 27.4989 34.2824 27.1021 35.0744 26.13C35.8672 25.1579 37.2653 23.9508 38.1824 23.4464C39.5938 22.6702 39.6304 22.5252 38.4233 22.5035C37.6388 22.4902 36.2316 23.2997 35.297 24.3034ZM0.897083 41.653C0.794541 49.4479 0.701158 58.9209 0.688653 62.7033L0.666992 69.5811L10.2542 69.6803C15.5272 69.7345 24.9061 70.1505 31.0961 70.6049C37.2862 71.0592 42.6675 71.1484 43.0543 70.8033C43.8388 70.103 45.4244 52.5842 44.7959 51.5662C44.5758 51.2111 42.7751 50.6767 40.7942 50.3799C37.5896 49.8989 37.2328 49.6271 37.5605 47.9122C38.1048 45.0627 34.9677 42.1407 32.6784 43.3662C31.7356 43.8706 30.5817 45.3795 30.1149 46.7193C29.4513 48.6242 28.7602 49.1561 26.9486 49.1561C24.696 49.1561 24.6435 49.0527 25.0545 45.4045C25.4246 42.1215 25.2787 41.653 23.8873 41.653C23.012 41.653 21.4447 41.0561 20.4042 40.3275C17.899 38.5726 19.3755 36.651 23.227 36.651C25.8581 36.651 26.019 36.4726 26.5459 32.9586C26.8502 30.9278 26.851 28.8644 26.5476 28.3734C26.1949 27.8032 21.4947 27.4805 13.5397 27.4805H1.08383L0.897083 41.653ZM25.2604 32.0157C25.2604 35.6714 25.2229 35.7198 22.2183 35.9757C18.245 36.3133 16.8245 38.4059 18.9637 40.7702C19.8182 41.7147 21.4405 42.4867 22.5693 42.4867C24.29 42.4867 24.5401 42.7893 24.1183 44.3625C23.8423 45.3937 23.6105 46.8943 23.6047 47.6972C23.5955 48.8701 22.8535 49.1561 19.8206 49.1561C16.3025 49.1561 16.0149 49.3236 15.5514 51.6388C14.4576 57.1085 9.7832 56.6316 10.4268 51.1161L10.7444 48.3974L6.5394 48.1515L2.33433 47.9056L2.09922 38.1099L1.86498 28.3142H13.5623H25.2604V32.0157ZM9.00374 31.6489C5.19635 32.1708 5.42725 32.2317 11.664 32.3517C15.4672 32.4242 18.721 32.1133 19.0078 31.6489C19.5764 30.7285 15.7115 30.7285 9.00374 31.6489ZM35.9373 48.1215L36.194 51.6571H39.8972H43.6012V58.2223C43.6012 61.8329 43.367 65.9596 43.0802 67.3927L42.5591 69.9979H36.1165C32.5725 69.9979 27.3671 69.757 24.5492 69.4627C19.6314 68.9483 19.4247 68.8333 19.4247 66.6124C19.4247 62.7308 20.1758 61.6879 22.626 62.1656C23.8957 62.4132 25.5363 62.0847 26.4642 61.3969C28.014 60.249 28.0224 60.0989 26.6535 58.0105C25.8665 56.8092 24.4801 55.8255 23.5738 55.8255C22.5051 55.8255 21.9257 55.2636 21.9257 54.2265C21.9257 50.8201 22.8311 49.9898 26.5442 49.9898C29.5571 49.9898 30.2449 49.6813 30.7251 48.114C32.3324 42.8702 35.5571 42.8752 35.9373 48.1215ZM4.15926 58.9518C3.95001 59.7546 3.77826 59.0976 3.77826 57.4928C3.77826 55.888 3.95001 55.2311 4.15926 56.0339C4.36935 56.8367 4.36935 58.1489 4.15926 58.9518ZM40.8009 58.5016C40.5191 59.552 40.3299 61.9113 40.3799 63.7454C40.4574 66.6174 40.57 66.3948 41.1902 62.1364C41.9288 57.0743 41.7155 55.0868 40.8009 58.5016ZM48.6033 67.0759C48.6033 69.4644 48.0105 70.9425 46.3631 72.6615C45.131 73.9479 44.5408 75 45.0518 75C47.7021 75 51.3669 66.5924 49.5211 64.7466C48.8533 64.0789 48.6033 64.7124 48.6033 67.0759Z" fill="black"/>
<path fill-rule="evenodd" clip-rule="evenodd" d="M0.688653 62.7032L0.666992 69.5811L10.2542 69.6803C12.6792 69.7052 15.9725 69.8066 19.4247 69.9531V66.6123C19.4247 62.7308 20.1758 61.6878 22.626 62.1655C23.8957 62.4131 25.5363 62.0847 26.4642 61.3969C28.014 60.2489 28.0224 60.0988 26.6535 58.0105C25.8665 56.8092 24.4801 55.8254 23.5738 55.8254C22.5051 55.8254 21.9257 55.2635 21.9257 54.2264C21.9257 52.2397 22.2337 51.1293 23.227 50.5487L21.5784 49.1026C21.1024 49.1407 20.5229 49.156 19.8206 49.156C16.3025 49.156 16.0149 49.3236 15.5514 51.6387C14.4576 57.1084 9.7832 56.6316 10.4268 51.116L10.7444 48.3974L6.5394 48.1515L2.33433 47.9055H0.820654C0.751676 53.9641 0.697927 59.8984 0.688653 62.7032ZM3.77826 57.4928C3.77826 59.0976 3.95001 59.7545 4.15926 58.9517C4.36935 58.1489 4.36935 56.8367 4.15926 56.0338C3.95001 55.231 3.77826 55.888 3.77826 57.4928Z" fill="url(#paint0_radial_1206_665)"/>
<defs>
<radialGradient id="paint0_radial_1206_665" cx="0" cy="0" r="1" gradientUnits="userSpaceOnUse" gradientTransform="translate(14.1608 69.9531) rotate(-90) scale(11.2318 12.4651)">
<stop stop-color="#587EDB"/>
<stop offset="1" stop-color="#1445C2"/>
</radialGradient>
</defs>
</svg>
