<svg width="68" height="75" viewBox="0 0 68 75" fill="none" xmlns="http://www.w3.org/2000/svg">
<path d="M49.7115 28.3233C50.194 21.4638 50.5042 13.9149 50.2286 7.02102C50.194 5.78011 49.9872 4.33238 48.9531 3.64298C48.5395 3.36722 48.057 3.26381 47.5744 3.19488C46.9195 3.09147 46.23 3.02253 45.5406 3.02253C31.9251 2.36761 18.3096 2.36761 4.65958 2.91912L1.97095 13.0876C1.59177 10.5025 1.79859 7.81382 2.62587 5.33201C2.86715 4.64261 3.38419 3.57404 4.03913 3.19488C4.96981 2.64336 5.93496 2.98806 6.58988 3.88427C7.24481 4.78048 7.55504 6.40056 7.69291 7.5036C8.79595 15.9487 8.58913 24.5316 8.38231 33.0456C8.14101 43.2486 7.89973 53.4172 7.65844 63.6202L7.55504 63.6892C16.8274 64.3097 26.1342 64.6543 35.4411 64.7233L49.7115 28.3233Z" fill="white"/>
<path d="M50.0218 28.3232C50.3321 23.8076 50.5389 19.2921 50.6077 14.7421C50.6423 12.5016 50.6423 10.261 50.5733 8.05498C50.5389 6.46937 50.6077 4.19437 48.9532 3.29816C48.5051 3.05687 48.0225 2.95347 47.54 2.88452C46.9884 2.81559 46.4025 2.74665 45.8509 2.71218C44.6446 2.67771 43.4381 2.60877 42.2316 2.5743C39.8532 2.47089 37.4748 2.40195 35.0964 2.33301C30.3051 2.2296 25.5139 2.19513 20.7225 2.2296C15.9657 2.26407 11.1744 2.36748 6.41762 2.53983C5.83164 2.5743 5.24565 2.5743 4.6252 2.60877C4.48731 2.60877 4.34944 2.71218 4.31497 2.85006C3.52216 5.81445 2.76383 8.77884 1.97103 11.7777C1.86762 12.1913 1.76421 12.605 1.62633 13.0186H2.24679C1.9021 10.7436 2.07444 8.3652 2.69489 6.12468C2.93619 5.26293 3.28088 4.26332 3.97028 3.64286C4.76307 2.919 5.79716 3.33264 6.34867 4.09097C6.86572 4.81483 7.07254 5.77998 7.24489 6.64173C7.45171 7.71028 7.55512 8.81332 7.65853 9.88188C7.89982 12.3292 8.07216 14.7766 8.14111 17.224C8.31346 22.1531 8.21004 27.0478 8.10663 31.9769C8.00322 36.9406 7.86535 41.8698 7.76194 46.8334C7.65853 51.797 7.52065 56.7951 7.41724 61.7587C7.41724 62.3792 7.38277 62.9996 7.38277 63.6201L7.55512 63.3444L7.45171 63.4133C7.17596 63.5857 7.27937 63.9993 7.62406 64.0337C14.8627 64.5164 22.1014 64.8266 29.34 64.999C31.3736 65.0334 33.4418 65.0678 35.4756 65.0678C35.6134 65.0678 35.7514 64.9644 35.7858 64.8266C36.2684 63.6201 36.7509 62.4137 37.1991 61.1728C38.3366 58.2774 39.4741 55.3819 40.577 52.4865C41.9559 48.9706 43.3347 45.4547 44.679 41.9732C45.8509 38.9399 47.0574 35.9065 48.2293 32.8732C48.6085 31.8735 49.0222 30.874 49.4014 29.8743C49.5736 29.3917 49.7805 28.9436 49.9528 28.461C49.9528 28.4266 49.9528 28.4266 49.9873 28.3921C50.1252 28.0129 49.5048 27.8406 49.3668 28.2198C48.8843 29.4262 48.4017 30.6326 47.9536 31.8735C46.8161 34.769 45.6786 37.6644 44.5756 40.5599C43.1968 44.0758 41.818 47.5917 40.4736 51.0732C39.3017 54.1065 38.0952 57.1399 36.9233 60.1732C36.5441 61.1728 36.1305 62.1724 35.7514 63.172C35.579 63.6201 35.3377 64.1027 35.1998 64.5853C35.1998 64.6198 35.1998 64.6198 35.1653 64.6542L35.4756 64.4129C28.2369 64.3785 20.9639 64.1371 13.7252 63.7581C11.6915 63.6546 9.6233 63.5167 7.58958 63.3789L7.76194 63.9993C7.89981 63.8959 8.00322 63.8269 8.0377 63.6201C8.07216 63.3099 8.0377 62.9652 8.07216 62.6206C8.07216 61.9656 8.10663 61.3107 8.10663 60.6558C8.14111 59.3459 8.17557 58.036 8.21004 56.7262C8.27898 54.1065 8.34792 51.5212 8.38239 48.9016C8.52027 43.6621 8.62367 38.4228 8.76156 33.1834C8.89944 28.0129 9.00285 22.8081 8.8305 17.6376C8.76156 15.0524 8.58921 12.5016 8.34792 9.91634C8.24452 8.77884 8.14111 7.60687 7.89981 6.50384C7.72747 5.57316 7.48619 4.57354 6.93466 3.8152C6.38315 3.05687 5.52141 2.47089 4.55625 2.71218C3.59111 2.919 3.00512 3.8152 2.62595 4.64248C2.14338 5.6421 1.9021 6.7796 1.72974 7.88264C1.52292 9.0546 1.45398 10.261 1.52292 11.433C1.55739 12.019 1.62633 12.6395 1.69527 13.2254C1.72974 13.5701 2.24679 13.5012 2.31573 13.2254C3.10853 10.261 3.86686 7.29665 4.65966 4.29778C4.76307 3.88415 4.86648 3.47051 5.00436 3.05687L4.69414 3.29816C9.38202 3.09134 14.0699 2.98793 18.7577 2.919C23.4457 2.85006 28.1335 2.88452 32.8214 2.95347C35.1653 2.98793 37.4748 3.05687 39.8188 3.12582C40.9907 3.16028 42.1627 3.19475 43.3002 3.26369C44.4722 3.29816 45.6097 3.33264 46.7816 3.43605C47.7123 3.53945 48.8153 3.64286 49.3668 4.5046C49.815 5.194 49.8839 6.05574 49.9184 6.88301C50.0218 9.0546 50.0218 11.2607 50.0218 13.4323C49.9873 17.8789 49.7805 22.3254 49.5048 26.772C49.4702 27.2891 49.4358 27.8406 49.4014 28.3576C49.3668 28.7368 49.9873 28.7368 50.0218 28.3232Z" fill="black"/>
<path d="M35.4758 65.2402C33.4076 65.2402 31.3394 65.2057 29.3402 65.1713C22.205 65.0333 14.9318 64.7231 7.76213 64.2406L7.69318 64.2751L7.65872 64.2061C7.62424 64.2061 7.62424 64.2061 7.58977 64.2061C7.38295 64.2061 7.17614 64.0682 7.14167 63.8614C7.10719 63.689 7.14167 63.5168 7.24508 63.4133L7.96894 32.0458C8.10682 26.841 8.17576 22.1186 8.00341 17.3273C7.9 14.7077 7.76213 12.2948 7.52083 9.9853L7.48636 9.67508C7.38295 8.70992 7.27955 7.7103 7.10719 6.74514C6.93485 5.91787 6.72803 4.98719 6.24545 4.26332C5.93523 3.84969 5.48713 3.53946 5.07349 3.505L2.52273 13.191V13.2599H2.48826V13.2944C2.41932 13.5356 2.17803 13.6736 1.97122 13.639C1.72993 13.639 1.59205 13.4668 1.55758 13.2599C1.55758 13.2599 1.55758 13.2599 1.55758 13.2254H1.52311L1.55758 13.122C1.48864 12.5361 1.4197 11.9845 1.38523 11.4675C1.31629 10.2955 1.38523 9.08909 1.59205 7.88264C1.72992 7.0209 1.97122 5.74553 2.52273 4.60803C3.03977 3.47053 3.66023 2.8156 4.45303 2.60878C4.52197 2.53984 4.62538 2.50537 4.72878 2.50537C5.31477 2.4709 5.90076 2.4709 6.52122 2.43643C11.3125 2.26409 16.1038 2.16068 20.8261 2.12621C25.6175 2.09174 30.4431 2.12621 35.2 2.22962C37.5784 2.29856 39.9568 2.3675 42.3352 2.4709C42.8522 2.50537 43.3349 2.50537 43.8519 2.53984C44.5413 2.57431 45.2652 2.60878 45.9545 2.64325C46.5061 2.67772 47.092 2.71219 47.678 2.8156C48.1606 2.88454 48.6777 2.98795 49.1602 3.22923C50.7803 4.09098 50.8147 6.19363 50.8493 7.74477V8.12394C50.9181 10.2266 50.9181 12.4326 50.8837 14.8455C50.8147 18.8785 50.6425 23.2906 50.2977 28.3231C50.2977 28.3921 50.2977 28.4955 50.2633 28.5645C50.2633 28.5989 50.2633 28.5989 50.2288 28.6333C50.1254 28.9436 49.9875 29.2883 49.8496 29.5986C49.7806 29.7708 49.7118 29.9088 49.6772 30.0466L36.0272 64.9989C35.855 65.1023 35.6826 65.2402 35.4758 65.2402ZM35.1311 64.8955C35.2345 64.8955 35.3379 64.8955 35.4758 64.8955C35.5447 64.8955 35.6136 64.8265 35.6136 64.7577L35.7516 64.4129L35.1311 64.8955ZM8.10682 63.8958C15.1731 64.3785 22.3084 64.6887 29.3056 64.8265C31.1326 64.8611 32.9939 64.8955 34.8553 64.8955L34.9587 64.5853H35.0621C27.9269 64.5163 20.7572 64.3095 13.6564 63.9304C11.8295 63.827 9.96818 63.7236 8.14128 63.5856V63.6202C8.17576 63.758 8.14128 63.827 8.10682 63.8958ZM35.4758 64.2406H35.8204L49.2636 29.8054C49.3326 29.633 49.4016 29.4952 49.4704 29.3228C49.5394 29.1504 49.6084 28.9781 49.6772 28.7713H49.6428C49.5394 28.7713 49.4704 28.7368 49.4016 28.6679L35.8894 63.241C35.8204 63.4133 35.7516 63.5512 35.6826 63.7236C35.6136 63.8958 35.5447 64.0682 35.4758 64.2406ZM8.24469 63.2754C10.0716 63.4133 11.933 63.5168 13.7599 63.6202C20.8261 63.9993 28.0303 64.2406 35.1311 64.2751C35.2 64.0338 35.3034 63.827 35.4068 63.6202C35.4758 63.4822 35.5447 63.3099 35.6136 63.172L49.2636 28.2543C49.2981 27.7716 49.3326 27.2546 49.367 26.772C49.6772 21.8083 49.8496 17.4307 49.8841 13.4322C49.8841 11.3641 49.8841 9.15803 49.7806 6.9175C49.7462 6.15917 49.6772 5.29742 49.2292 4.6425C48.7121 3.84969 47.7125 3.74628 46.8163 3.67735C45.9891 3.6084 45.1272 3.57394 44.3345 3.53946C43.9897 3.53946 43.6795 3.505 43.3349 3.505C42.1629 3.47053 40.9909 3.40159 39.8534 3.36712C37.5439 3.29818 35.2 3.22923 32.8561 3.19477C28.2027 3.09136 23.4803 3.09136 18.7925 3.1603C14.8629 3.19477 10.8644 3.29818 6.86591 3.43605C6.96932 3.53946 7.03826 3.64287 7.14167 3.78076C7.69318 4.57355 7.93447 5.57318 8.14128 6.53832C8.3481 7.57242 8.45151 8.67545 8.55492 9.70954L8.5894 9.9853C8.83068 12.3982 9.00303 14.9145 9.07197 17.7065C9.24432 22.877 9.10644 28.1163 9.00303 33.1833V33.2523L8.31364 62.7239C8.31364 62.8273 8.31364 62.9307 8.31364 63.0341C8.24469 63.0686 8.24469 63.172 8.24469 63.2754ZM7.4519 63.689C7.4519 63.7236 7.4519 63.7236 7.4519 63.758C7.4519 63.7924 7.48636 63.827 7.52083 63.8614L7.48636 63.7236L7.4519 63.689ZM7.83106 63.5856L7.86553 63.689C7.86553 63.6546 7.86553 63.6546 7.86553 63.6202C7.86553 63.6202 7.86553 63.6202 7.86553 63.5856H7.83106ZM7.55531 63.2065C7.69318 63.2065 7.76213 63.2065 7.86553 63.241C7.86553 63.1376 7.86553 63.0686 7.86553 62.9652C7.86553 62.8618 7.86553 62.7583 7.86553 62.6205L8.55492 33.0799C8.65833 28.0129 8.79622 22.7736 8.62386 17.6376C8.52045 14.8455 8.38258 12.3292 8.14128 9.95082L8.10682 9.67508C8.00341 8.64098 7.9 7.57242 7.69318 6.53832C7.52083 5.60764 7.27955 4.6425 6.7625 3.91863C6.62462 3.71181 6.45227 3.53946 6.3144 3.40159C6.14205 3.40159 6.00417 3.40159 5.83182 3.43605C6.0731 3.6084 6.3144 3.81522 6.48674 4.05651C7.03826 4.81485 7.24508 5.81446 7.41742 6.67621C7.58977 7.64136 7.69318 8.67545 7.79659 9.6406L7.83106 9.95082C8.07235 12.2603 8.21023 14.6731 8.31364 17.2929C8.48599 22.1186 8.38258 26.841 8.27917 32.0458L7.55531 63.2065ZM49.5394 28.2887V28.3231C49.5394 28.3921 49.5738 28.4611 49.6428 28.4611C49.7118 28.4611 49.8152 28.4265 49.8152 28.3231C49.8152 28.2887 49.8152 28.2887 49.8152 28.2543C49.8152 28.2197 49.7806 28.2197 49.7462 28.2197C49.7118 28.1853 49.6084 28.1853 49.5394 28.2887ZM49.7118 27.8406C49.7806 27.8406 49.8152 27.8406 49.8841 27.8751C50.1943 22.9804 50.4011 18.7061 50.4356 14.7421C50.4701 12.3292 50.4701 10.1576 50.4011 8.055V7.67583C50.3667 6.12469 50.3322 4.22886 48.8845 3.43605C48.5053 3.22923 48.0572 3.12582 47.5056 3.05689C46.9197 2.98795 46.3681 2.91901 45.8167 2.88454C45.1272 2.85008 44.4034 2.8156 43.7141 2.78113C43.197 2.74667 42.7144 2.74667 42.1974 2.71219C39.8534 2.60878 37.4405 2.53984 35.0966 2.4709C30.3743 2.3675 25.5485 2.33303 20.7572 2.3675C16.0349 2.40197 11.2436 2.50537 6.45227 2.67772C6.3144 2.67772 6.17651 2.67772 6.03864 2.67772C6.17651 2.74667 6.3144 2.85008 6.45227 2.95348C10.5886 2.8156 14.6905 2.71219 18.7235 2.64325C23.4113 2.57431 28.1337 2.60878 32.7871 2.67772C35.0966 2.71219 37.475 2.78113 39.7845 2.85007C40.9564 2.88454 42.1284 2.91901 43.3004 2.98795C43.6451 2.98795 43.9553 3.02242 44.3 3.02242C45.1272 3.05689 45.9545 3.09136 46.7818 3.1603C47.747 3.26371 48.8845 3.36712 49.4704 4.2978C49.953 5.02167 50.022 5.95235 50.0564 6.74514C50.1599 9.02014 50.1599 11.2262 50.1599 13.2944C50.1254 17.2929 49.953 21.6705 49.6428 26.6341C49.6084 27.0133 49.6084 27.358 49.5738 27.7372C49.6084 27.8751 49.6772 27.8406 49.7118 27.8406ZM1.86781 13.191C1.86781 13.2254 1.90227 13.2599 1.97122 13.2599C2.04015 13.2599 2.07463 13.2254 2.14356 13.191H1.86781ZM1.90227 12.8463H2.10909C2.07463 12.6739 2.07463 12.5016 2.04015 12.3292L1.90227 12.8463ZM2.31591 11.2951C2.31591 11.6054 2.35038 11.9156 2.38485 12.2258L4.69432 3.47053C4.55644 3.505 4.45303 3.53946 4.34963 3.6084L2.31591 11.2951ZM4.14281 3.02242C3.62576 3.29818 3.14318 3.84969 2.76401 4.71144C2.24697 5.81446 2.00568 7.05537 1.86781 7.91712C1.66098 9.08909 1.59205 10.2955 1.66099 11.433C1.66099 11.6743 1.69545 11.9501 1.72992 12.1914L1.97122 11.2951C1.90227 9.57167 2.10909 7.81371 2.59167 6.12469C2.83295 5.22848 3.17765 4.22886 3.90151 3.57394C3.93599 3.53946 4.00492 3.505 4.0394 3.47053L4.14281 3.02242ZM3.86705 4.09098C3.38447 4.67696 3.14318 5.46977 2.93636 6.19363C2.59167 7.40007 2.38485 8.67545 2.31591 9.95082L3.86705 4.09098ZM4.55644 2.88454L4.52197 2.91901L4.45303 3.22923C4.4875 3.22923 4.4875 3.22923 4.52197 3.19477L5.00455 2.8156C4.86667 2.8156 4.72878 2.8156 4.55644 2.88454C4.59091 2.85008 4.55644 2.85008 4.55644 2.88454ZM5.21136 2.85007L5.14242 3.09136C5.38372 3.09136 5.625 3.05689 5.86628 3.05689C5.65947 2.95348 5.45265 2.88454 5.21136 2.85007Z" fill="black"/>
<path d="M12.9324 55.1406C14.2767 53.8997 15.6211 52.6587 16.8964 51.3144C17.5169 50.6595 18.1373 50.0045 18.7233 49.2807C19.2404 48.6602 19.7919 47.9364 19.7919 47.0747C19.7919 46.9368 19.6884 46.7989 19.5506 46.7644C18.9646 46.5232 18.3441 47.1781 17.9305 47.5227C17.4824 47.9019 17.1032 48.35 16.7586 48.8326C16.0691 49.7633 15.5521 50.8664 15.2074 51.9693C15.035 52.5209 14.8972 53.1068 14.8282 53.6928C14.7248 54.2789 14.6214 54.8993 14.7248 55.4852C14.8282 56.0712 15.2419 56.5193 15.8623 56.5539C16.4828 56.5883 16.9998 56.2436 17.4134 55.83C17.9305 55.2784 18.3441 54.6235 18.7578 54.0031C19.2059 53.3136 19.585 52.6243 19.9298 51.9005L19.3782 51.5902C19.0336 52.3485 18.8957 53.2102 18.9991 54.0375C19.068 54.658 19.3782 55.3818 20.0677 55.4852C20.8259 55.5886 21.343 54.8648 21.6878 54.2789C22.1358 53.555 22.515 52.7966 22.8253 51.9693L22.1703 51.8659C21.8946 52.6587 21.86 53.486 21.998 54.3133C22.0669 54.6579 22.1703 55.1406 22.4461 55.4164C22.6873 55.6576 23.0665 55.692 23.3767 55.5886C24.0316 55.4164 24.4798 54.8648 24.8245 54.2789C25.2381 53.5894 25.5483 52.7966 25.893 52.0727C26.0654 51.6936 25.5139 51.3834 25.3415 51.7625C25.0313 52.3829 24.7555 53.0034 24.4453 53.6239C24.204 54.072 23.9628 54.5891 23.5146 54.8303C23.3423 54.9337 23.0321 55.0716 22.8941 54.8993C22.8253 54.7959 22.7907 54.6235 22.7563 54.5201C22.7219 54.3477 22.6873 54.1755 22.6529 54.0375C22.5495 53.3482 22.6184 52.6932 22.8253 52.0383C22.9631 51.6247 22.3426 51.4868 22.2048 51.8659C21.9634 52.4864 21.6532 53.0724 21.3086 53.6584C21.0673 54.0375 20.7225 54.7959 20.2055 54.8993C19.723 54.9682 19.6196 54.2789 19.585 53.9341C19.5506 53.2792 19.654 52.5898 19.8953 51.9693C20.0676 51.5902 19.5162 51.2454 19.3438 51.6591C18.8267 52.7622 18.2063 53.7962 17.4824 54.7614C17.1722 55.175 16.8275 55.7266 16.3449 55.9334C15.8969 56.1057 15.4142 55.9678 15.3453 55.4852C15.2764 55.0027 15.3798 54.4857 15.4487 54.0031C15.5176 53.486 15.6211 53.0034 15.7589 52.5209C16.0347 51.5212 16.4483 50.5906 16.9998 49.7289C17.31 49.2462 17.6548 48.8326 18.0339 48.419C18.2407 48.2122 18.4475 48.0053 18.6889 47.8329C18.8612 47.6951 19.1714 47.3849 19.4128 47.4539L19.1714 47.1436C19.1714 47.9364 18.5509 48.5914 18.0684 49.1428C17.4824 49.7977 16.8964 50.4527 16.2759 51.0732C15.0696 52.3141 13.7941 53.5204 12.4844 54.6925C12.1396 54.9682 12.6222 55.4164 12.9324 55.1406Z" fill="url(#paint0_radial_1206_374)"/>
<path d="M15.9313 56.8296C15.8969 56.8296 15.8279 56.8296 15.7935 56.8296C15.104 56.7607 14.587 56.278 14.4836 55.5887C14.4146 55.0371 14.4836 54.4512 14.587 53.8652V53.7962C14.0699 54.2788 13.5185 54.7959 13.0014 55.2785C12.7601 55.4853 12.4498 55.4163 12.2776 55.244C12.1052 55.0717 12.0707 54.7959 12.312 54.5546C13.2082 53.7274 14.1044 52.9001 15.0006 52.0383C15.0006 52.0038 15.0006 52.0038 15.0351 51.9694C15.4143 50.7629 15.9313 49.6944 16.6207 48.7637C16.9998 48.2467 17.379 47.7985 17.7927 47.4194L17.8961 47.316C18.1719 47.0746 18.551 46.73 18.9646 46.5921V46.5576L18.9991 46.5921C19.206 46.5232 19.4128 46.5232 19.6196 46.5921C19.8264 46.661 19.9643 46.8678 19.9643 47.0746C19.9643 47.316 19.9298 47.5228 19.8609 47.7296L19.8953 47.7641H19.8609C19.6885 48.3501 19.2748 48.8671 18.8612 49.3842C18.3097 50.0391 17.7237 50.694 17.0344 51.4178C16.6552 51.797 16.3105 52.1762 15.9313 52.5209C15.7935 52.969 15.6901 53.4516 15.6211 53.9342L15.5866 54.072C15.5177 54.4857 15.4487 54.9683 15.5177 55.3819C15.5521 55.5542 15.6211 55.6576 15.7245 55.7266C15.8623 55.7955 16.0691 55.7955 16.276 55.7266C16.6552 55.5542 16.9654 55.1405 17.2412 54.7615L17.3446 54.5891C18.1029 53.555 18.7234 52.5209 19.1714 51.5212L19.2404 51.349L19.2748 51.3834C19.4128 51.28 19.5851 51.2455 19.7574 51.3144C19.9643 51.4178 20.1021 51.6246 20.0677 51.866H20.1021L20.0332 52.0038C19.7919 52.5899 19.6885 53.2448 19.723 53.8652C19.7574 54.141 19.8264 54.5201 19.9987 54.6235C20.0332 54.658 20.1021 54.658 20.1711 54.658C20.5503 54.5891 20.8605 54.0376 21.0328 53.6928C21.0673 53.624 21.1018 53.5894 21.1362 53.5205C21.481 52.9345 21.7567 52.3485 21.998 51.7626L22.0324 51.6246H22.0669C22.2048 51.4524 22.4805 51.3834 22.6529 51.4524C22.8253 51.5212 22.9631 51.6592 22.9631 51.866H22.9976L22.9287 52.0383C22.7219 52.6587 22.6529 53.3482 22.7563 53.9342C22.7907 54.072 22.8253 54.2444 22.8597 54.4167L22.8941 54.4857C22.9287 54.5546 22.9287 54.6925 22.9976 54.7269C23.0321 54.7615 23.2044 54.7269 23.4112 54.6235C23.8248 54.3823 24.0662 53.9342 24.3074 53.486C24.5143 53.0724 24.7211 52.6243 24.9279 52.2107L25.2037 51.6592C25.2726 51.5212 25.4105 51.4178 25.5828 51.3834C25.7552 51.3834 25.9276 51.4524 26.0654 51.6246C26.1688 51.7626 26.1688 51.9694 26.0998 52.1417C25.9964 52.3485 25.893 52.5553 25.7896 52.7967C25.5484 53.3137 25.3071 53.8652 24.9969 54.3823C24.5487 55.1405 24.0316 55.5887 23.4457 55.761C22.9976 55.8644 22.6185 55.7955 22.3427 55.5198C22.0324 55.2095 21.929 54.6925 21.8601 54.3133C21.8256 54.3478 21.8256 54.3823 21.7912 54.4167C21.3776 55.1061 20.826 55.7955 19.9987 55.6921C19.3782 55.6232 18.9302 55.0717 18.7923 54.2444C18.3787 54.8993 17.9651 55.4853 17.5169 56.0024C17.1722 56.3815 16.6207 56.8296 15.9313 56.8296ZM15.0351 53.3826C15.0006 53.5205 15.0006 53.6584 14.9662 53.7618L14.9316 53.8996C14.8628 54.4512 14.7594 55.0027 14.8282 55.5198C14.8972 56.0368 15.3109 56.416 15.7935 56.4504C16.4139 56.4849 16.8964 56.1058 17.1722 55.761C17.6548 55.244 18.0339 54.6235 18.4821 53.9342C18.551 53.8308 18.5855 53.7618 18.6544 53.6584C18.6544 53.4516 18.6544 53.2448 18.6889 53.0379C18.3442 53.624 17.9651 54.2099 17.5169 54.8303L17.4135 55.0027C17.1378 55.4163 16.793 55.8644 16.3105 56.0712C16.0347 56.2092 15.6901 56.2092 15.4832 56.0712C15.2764 55.9678 15.1385 55.761 15.104 55.4853C15.0351 55.0371 15.104 54.5201 15.173 54.072L15.2074 53.9342C15.2419 53.624 15.3109 53.3137 15.3798 53.0035C15.3109 53.1413 15.173 53.2792 15.0351 53.3826ZM22.1014 53.8652C22.1014 54.003 22.1359 54.141 22.1703 54.2788C22.2393 54.5891 22.3082 55.0717 22.5495 55.3129C22.7219 55.4853 23.0321 55.5198 23.3423 55.4508C23.8594 55.3129 24.273 54.9337 24.6867 54.2444C24.9623 53.7618 25.2037 53.2103 25.4449 52.6933C25.5484 52.4865 25.6518 52.2796 25.7552 52.0383C25.7896 51.9694 25.7896 51.9349 25.7552 51.866C25.7207 51.797 25.6518 51.797 25.6173 51.797C25.5828 51.797 25.5484 51.797 25.5484 51.866L25.2726 52.4175C25.0657 52.8655 24.8589 53.2792 24.6521 53.7274C24.4109 54.2099 24.1006 54.7269 23.6526 55.0027C23.2734 55.2095 22.9976 55.244 22.8253 55.0371C22.7219 54.9337 22.6873 54.7615 22.6529 54.658L22.6185 54.5891C22.5839 54.4167 22.5151 54.2444 22.5151 54.072C22.4805 53.8308 22.4461 53.5894 22.4461 53.3482C22.3082 53.5205 22.2048 53.6928 22.1014 53.8652ZM19.068 53.7962C19.068 53.8996 19.068 53.9686 19.1026 54.072C19.137 54.4167 19.3094 55.2785 20.0332 55.3474C20.6537 55.4163 21.1362 54.8303 21.481 54.2444C21.5844 54.1065 21.6532 53.9342 21.7567 53.7962C21.7567 53.5894 21.7222 53.3826 21.7567 53.1758C21.6532 53.3826 21.5498 53.555 21.4464 53.7618C21.412 53.7962 21.3776 53.8652 21.343 53.9342C21.1018 54.3823 20.7571 55.0027 20.2055 55.0717C20.0332 55.1061 19.8953 55.0717 19.7919 54.9683C19.5162 54.7269 19.4128 54.2444 19.4128 53.9686C19.4128 53.7618 19.3782 53.5205 19.4128 53.3137C19.2748 53.4516 19.1714 53.624 19.068 53.7962ZM12.7946 55.0027C13.4495 54.4167 14.0699 53.7962 14.7248 53.2103C14.7594 53.0379 14.7938 52.8655 14.8282 52.6933C14.0699 53.4171 13.3116 54.1065 12.5532 54.8303C12.4844 54.8993 12.5188 54.9683 12.5532 55.0027C12.5878 55.0027 12.6912 55.1061 12.7946 55.0027ZM22.2737 52.0728C22.1703 52.4175 22.1014 52.7967 22.1014 53.1413C22.2737 52.8311 22.4116 52.4865 22.5495 52.1417L22.2737 52.0728ZM19.4128 51.866C19.2748 52.2796 19.1714 52.6587 19.1026 53.0724C19.3094 52.7277 19.4817 52.3831 19.654 52.0383L19.4128 51.866ZM15.3109 52.2107C15.2419 52.383 15.2074 52.5899 15.173 52.7621C15.3109 52.6243 15.4487 52.4865 15.5866 52.3485C15.6555 52.1417 15.7245 51.9349 15.7935 51.728C15.6211 51.9349 15.4832 52.0728 15.3109 52.2107ZM16.4139 51.1421C16.3105 51.3834 16.2071 51.6246 16.1381 51.866C16.3449 51.6592 16.5518 51.4178 16.793 51.211C17.4824 50.5217 18.0685 49.8667 18.6199 49.2118C19.0336 48.6948 19.4128 48.2121 19.5851 47.6951L19.3782 47.6262C19.3438 47.6262 19.3438 47.6262 19.3094 47.6262C19.137 48.2121 18.7234 48.6948 18.3442 49.1084L18.2063 49.2808C17.6203 49.8667 17.0688 50.4871 16.4139 51.1421ZM18.9646 47.0058C18.6544 47.1436 18.3787 47.3849 18.1373 47.6262L18.0339 47.7296C17.6203 48.0743 17.2412 48.5224 16.8964 49.005C16.3449 49.7288 15.8969 50.5905 15.5521 51.5212C15.7245 51.349 15.9313 51.1421 16.1037 50.9698C16.3105 50.4871 16.5518 50.0391 16.8276 49.591C17.1378 49.1084 17.4824 48.6603 17.8961 48.2811C18.1029 48.0743 18.3097 47.8675 18.551 47.6607L18.6199 47.5917C18.7234 47.5228 18.8268 47.4194 18.9302 47.3504C18.9302 47.2815 18.9646 47.2126 18.9646 47.1092V47.0058ZM18.7234 47.9709C18.5165 48.1433 18.3442 48.3155 18.1719 48.4879C17.7927 48.8671 17.448 49.3152 17.1722 49.7633C17.1032 49.8667 17.0344 49.9701 16.9998 50.0735C17.3446 49.7288 17.6548 49.3496 17.9305 49.005L18.0685 48.8326C18.2753 48.5913 18.5165 48.2811 18.7234 47.9709ZM19.206 46.9368L19.5851 47.4194C19.5851 47.316 19.6196 47.2126 19.6196 47.1092C19.6196 47.0402 19.5851 47.0058 19.4817 46.9712C19.4128 46.9368 19.3094 46.9368 19.206 46.9368Z" fill="url(#paint1_radial_1206_374)"/>
<path d="M8.1063 13.1221C6.07258 13.1565 4.03888 13.1565 2.00516 13.0877C2.00516 13.0877 1.38471 5.88346 3.31501 4.05656C5.24532 2.1952 6.9688 3.19482 7.55478 6.43497C8.17524 9.64065 8.1063 13.1221 8.1063 13.1221Z" fill="black"/>
<path d="M8.10611 12.8118C6.07239 12.8463 4.03869 12.8463 2.00497 12.7773L2.3152 13.0876C2.24627 12.2948 2.21179 11.502 2.21179 10.7092C2.21179 9.22696 2.24627 7.71029 2.59096 6.26256C2.72884 5.67658 2.93566 5.05613 3.28036 4.53908C3.62505 4.02204 4.31445 3.53946 4.96937 3.47052C5.62429 3.40158 6.14134 3.84969 6.48604 4.36673C7.07202 5.29741 7.24437 6.40045 7.38225 7.469C7.65801 9.33037 7.79588 11.2607 7.76142 13.1564C7.76142 13.5701 8.41634 13.5701 8.41634 13.1564C8.45082 11.433 8.31293 9.70954 8.10611 8.02051C7.93376 6.81408 7.79588 5.57317 7.24437 4.47014C6.89967 3.74628 6.34816 3.05688 5.55536 2.88454C4.76255 2.71219 3.96975 3.09136 3.34929 3.6084C2.79778 4.0565 2.45309 4.60802 2.21179 5.29741C1.66028 6.77961 1.59134 8.43415 1.55687 9.98529C1.5224 11.0539 1.55687 12.0879 1.66028 13.1564C1.66028 13.3288 1.79816 13.4668 1.97051 13.4668C4.00422 13.5357 6.03793 13.5701 8.07165 13.5012C8.55422 13.4322 8.55421 12.8118 8.10611 12.8118Z" fill="black"/>
<path d="M22.239 10.0198C20.619 8.74443 18.3784 8.53761 16.586 9.5717C15.7588 10.0543 15.0349 10.8126 14.6213 11.6744C14.1731 12.605 14.0352 13.8115 14.7247 14.7421C15.3796 15.6384 16.4481 15.983 17.4477 16.121C17.6546 16.1554 17.8614 16.1899 18.1026 16.1899C18.1372 16.1899 18.1716 16.1899 18.206 16.1899C18.4474 16.2244 18.7231 16.2588 18.9644 16.2933C19.4469 16.3622 19.9296 16.5001 20.3088 16.7759C20.9981 17.224 21.3083 18.1546 21.3428 18.9819C21.3773 19.8092 21.1705 20.602 20.5844 21.1191C19.8261 21.8085 18.6197 22.0842 17.5856 21.9463C16.6205 21.8085 15.6898 21.2915 15.1383 20.4986C14.9659 20.2574 14.6213 20.1194 14.311 20.2918C14.1731 20.3608 14.0697 20.4986 14.0352 20.671C14.0008 20.8088 14.0008 20.9812 14.1042 21.1535C15.3451 22.946 17.6546 23.6009 19.6883 22.946C20.6534 22.6358 21.6185 22.0497 22.1011 21.0846C22.5492 20.2228 22.6182 19.2233 22.4458 18.258C22.2735 17.224 21.7565 16.2244 20.8258 15.6728C20.033 15.1903 19.1023 15.0869 18.2406 15.0179C18.0682 14.9835 17.8958 14.9835 17.7235 14.949C17.3099 14.8801 16.8617 14.8111 16.4481 14.6387C16.0344 14.4665 15.7242 14.2251 15.5519 13.846C15.3796 13.4668 15.3796 13.0532 15.5174 12.6395C15.6553 12.2259 15.8966 11.8122 16.1378 11.502C16.7583 10.7781 17.6201 10.2611 18.5508 10.1232C19.4815 9.98534 20.5844 10.2611 21.3428 10.8816C21.5841 11.0539 21.9288 11.1228 22.1701 10.8816C22.2735 10.7781 22.3424 10.6058 22.3424 10.4679C22.4114 10.33 22.3769 10.1577 22.239 10.0198Z" fill="url(#paint2_radial_1206_374)"/>
<path d="M18.1368 23.394C16.4823 23.394 14.9311 22.6357 14.0005 21.2569C13.8626 21.0845 13.8626 20.8433 13.8971 20.6365C13.966 20.4297 14.0694 20.2573 14.2418 20.1539C14.5865 19.947 14.9311 20.0505 15.1725 20.2917L15.2759 20.4297C15.793 21.188 16.6547 21.705 17.5853 21.8084C18.6539 21.9463 19.7569 21.636 20.4464 21.0156C21.0668 20.4641 21.1702 19.6024 21.1357 19.0164C21.1013 18.0512 20.7221 17.2928 20.1706 16.9137C19.8259 16.7069 19.4467 16.569 18.8952 16.4656C18.6539 16.4311 18.4126 16.3967 18.1714 16.3622H18.068C17.8266 16.3277 17.6198 16.3277 17.413 16.2933C16.0686 16.1209 15.138 15.6383 14.5521 14.8456C13.6558 13.6391 14.1729 12.1914 14.4486 11.6054C14.8623 10.7092 15.5861 9.95084 16.4823 9.39933C18.2748 8.33077 20.6186 8.50311 22.3077 9.84743C22.48 9.98532 22.549 10.1921 22.549 10.4334C22.549 10.6402 22.4456 10.8471 22.3077 10.9849C21.963 11.3296 21.5149 11.2262 21.2391 11.0194C20.5152 10.4679 19.4811 10.1921 18.5505 10.2955C17.6888 10.399 16.8615 10.8815 16.241 11.6054C15.9652 11.9501 15.7584 12.3292 15.6206 12.674C15.4827 13.0876 15.4827 13.4667 15.655 13.7769C15.793 14.0872 16.0686 14.3285 16.4823 14.5008C16.7925 14.6387 17.2061 14.7422 17.7232 14.811C17.8956 14.8456 18.068 14.8456 18.2058 14.88C19.0675 14.9834 20.0327 15.0868 20.86 15.5694C21.7561 16.0865 22.3422 17.0516 22.5834 18.2925C22.7902 19.361 22.6524 20.3607 22.2388 21.2224C21.6873 22.3255 20.5498 22.9115 19.7225 23.1872C19.2399 23.3251 18.6884 23.394 18.1368 23.394ZM14.6555 20.4297C14.5865 20.4297 14.5175 20.4641 14.4486 20.4985C14.3452 20.5675 14.2763 20.6365 14.2418 20.7743C14.2418 20.8433 14.2073 20.9811 14.2763 21.0845C15.4482 22.7735 17.6543 23.463 19.6535 22.8081C20.4118 22.5667 21.4459 22.0497 21.963 21.0501C22.4456 20.0849 22.4111 19.0508 22.2732 18.3615C22.1698 17.7065 21.7907 16.5345 20.7221 15.8797C19.9638 15.4315 19.0675 15.3281 18.2058 15.2247C18.0334 15.1902 17.8611 15.1902 17.6888 15.1558C17.1373 15.0868 16.7236 14.9834 16.3789 14.811C15.8964 14.6042 15.5861 14.294 15.3793 13.9149C15.2069 13.5357 15.1725 13.0876 15.3448 12.5705C15.4827 12.1569 15.724 11.7433 15.9998 11.3986C16.6547 10.6058 17.5854 10.0887 18.516 9.98532C19.5501 9.84743 20.6532 10.1577 21.4459 10.7781C21.6183 10.916 21.8596 10.9849 22.0664 10.7781C22.1353 10.7092 22.1698 10.6058 22.2043 10.4679C22.2043 10.399 22.2043 10.2611 22.1009 10.1577C20.5152 8.91675 18.3436 8.74441 16.6547 9.74402C15.8274 10.2266 15.1725 10.9505 14.7589 11.7777C14.5175 12.2948 14.035 13.6047 14.8277 14.6387C15.3448 15.3626 16.2066 15.7762 17.4475 15.9485C17.6543 15.9831 17.8611 15.9831 18.068 16.0175H18.2058C18.4471 16.0519 18.7228 16.0865 18.9641 16.1209C19.5501 16.2243 19.9982 16.3622 20.3774 16.6035C20.9978 17.0172 21.4115 17.9133 21.4805 18.9474C21.5149 19.9126 21.2391 20.7053 20.6876 21.2224C19.9293 21.9118 18.7228 22.2565 17.5509 22.0842C16.5168 21.9462 15.5516 21.3948 15.0001 20.5675C14.9311 20.5331 14.7933 20.4297 14.6555 20.4297Z" fill="url(#paint3_radial_1206_374)"/>
<path d="M29.7536 10.468C33.4419 10.468 37.0956 10.3301 40.7494 10.1577C41.163 10.1233 41.163 9.50281 40.7494 9.50281C37.0956 9.70963 33.4419 9.81303 29.7536 9.81303C29.34 9.8475 29.34 10.468 29.7536 10.468Z" fill="black"/>
<path fill-rule="evenodd" clip-rule="evenodd" d="M29.7536 10.8127C29.5468 10.8127 29.3744 10.7438 29.271 10.6059C29.1676 10.468 29.0986 10.2957 29.0986 10.1578C29.0986 10.0199 29.1332 9.84755 29.271 9.70967C29.3744 9.57179 29.5468 9.50285 29.7536 9.50285C33.4074 9.50285 37.0957 9.36497 40.7494 9.19263C40.9562 9.19263 41.1286 9.26157 41.2665 9.39945C41.3699 9.53732 41.4389 9.70967 41.4389 9.84755C41.4389 10.1578 41.232 10.5025 40.8184 10.5369C37.1301 10.7093 33.4418 10.8127 29.7536 10.8127ZM40.7839 10.1578C37.1301 10.3646 33.4418 10.468 29.7881 10.468C29.3744 10.468 29.3744 9.81308 29.7881 9.81308C33.4764 9.81308 37.1301 9.67521 40.7839 9.50285C41.1975 9.46839 41.1975 10.1233 40.7839 10.1578Z" fill="black"/>
<path d="M14.2765 30.4259C18.275 30.4259 22.308 30.288 26.3064 30.1156C26.7545 30.0811 26.7545 29.4607 26.3064 29.4607C22.308 29.6675 18.275 29.7709 14.2765 29.7709C13.8284 29.7709 13.8284 30.4259 14.2765 30.4259Z" fill="black"/>
<path fill-rule="evenodd" clip-rule="evenodd" d="M14.2766 30.7705C14.0698 30.7705 13.863 30.7016 13.7251 30.5637C13.5872 30.4259 13.5527 30.2535 13.5527 30.1156C13.5527 29.9778 13.6217 29.8054 13.7251 29.6676C13.863 29.5296 14.0353 29.4607 14.2766 29.4607C18.2751 29.4607 22.2735 29.3228 26.2721 29.1505C26.4789 29.1505 26.6857 29.2194 26.8235 29.3573C26.9615 29.4952 26.9959 29.6676 26.9959 29.8054C26.9959 30.1156 26.7891 30.4603 26.3065 30.4948C22.3081 30.6671 18.3096 30.7705 14.2766 30.7705ZM26.3065 30.1156C22.3081 30.3224 18.2751 30.4259 14.2766 30.4259C13.8285 30.4259 13.8285 29.771 14.2766 29.771C18.2751 29.771 22.3081 29.633 26.3065 29.4607C26.7547 29.4262 26.7547 30.0812 26.3065 30.1156Z" fill="black"/>
<path d="M29.9605 15.6038C34.7863 15.6038 39.5775 15.4659 44.4033 15.2936C44.9548 15.2591 44.9548 14.6387 44.4033 14.6387C39.6121 14.8455 34.7863 14.9489 29.9605 14.9489C29.409 14.9489 29.409 15.6038 29.9605 15.6038Z" fill="black"/>
<path fill-rule="evenodd" clip-rule="evenodd" d="M29.9605 15.9487C29.6847 15.9487 29.4778 15.8797 29.3055 15.7419C29.1676 15.6041 29.0986 15.4317 29.0986 15.2938C29.0986 15.1559 29.1676 14.9836 29.3055 14.8457C29.4778 14.7078 29.6847 14.6388 29.9605 14.6388C34.7517 14.6388 39.5775 14.501 44.3687 14.3286C44.6445 14.3286 44.8858 14.3976 45.0236 14.5354C45.1616 14.6734 45.2304 14.8457 45.2304 14.9836C45.2304 15.2938 44.9548 15.6385 44.4032 15.6729C39.6119 15.8453 34.7861 15.9487 29.9605 15.9487ZM44.4032 15.2938C39.6119 15.5007 34.7861 15.6041 29.9605 15.6041C29.4089 15.6041 29.4089 14.9491 29.9605 14.9491C34.7861 14.9491 39.5775 14.8112 44.4032 14.6388C44.9548 14.6044 44.9548 15.2593 44.4032 15.2938Z" fill="black"/>
<path d="M18.6892 24.2558C18.8615 18.7407 18.9304 13.2255 18.896 7.71035C18.896 7.08989 18.241 7.05543 18.241 7.67588C18.2755 13.191 18.2066 18.7062 18.0342 24.2214C18.0342 24.8418 18.6892 24.8763 18.6892 24.2558Z" fill="url(#paint4_radial_1206_374)"/>
<path fill-rule="evenodd" clip-rule="evenodd" d="M19.0338 24.2558C19.0338 24.566 18.9304 24.8073 18.7925 24.9797C18.6546 25.1519 18.4823 25.2209 18.3443 25.2209C18.2065 25.2209 18.0341 25.1519 17.8963 24.9797C17.7584 24.8073 17.6895 24.5315 17.6895 24.2213C17.8618 18.7061 17.9307 13.191 17.8963 7.71031C17.8963 7.40008 17.9652 7.12433 18.1375 6.95198C18.2755 6.77963 18.4477 6.71069 18.5857 6.71069C18.8959 6.71069 19.2406 7.02092 19.2406 7.67584C19.275 13.2255 19.2062 18.7406 19.0338 24.2558ZM18.8959 7.71031C18.9304 13.2255 18.8614 18.7406 18.6891 24.2558C18.6546 24.8763 18.0341 24.8763 18.0341 24.2213C18.2065 18.7061 18.2755 13.191 18.2409 7.67584C18.2409 7.05539 18.8959 7.08985 18.8959 7.71031Z" fill="url(#paint5_radial_1206_374)"/>
<path d="M14.4835 35.4585C19.7573 35.5275 24.9968 35.4585 30.2706 35.3207C30.8565 35.3207 30.8911 34.6656 30.2706 34.6656C25.0312 34.8036 19.7573 34.838 14.4835 34.8036C13.8974 34.8036 13.8974 35.4585 14.4835 35.4585Z" fill="black"/>
<path fill-rule="evenodd" clip-rule="evenodd" d="M14.4837 35.8031C14.2079 35.8031 13.9322 35.6997 13.7598 35.5618C13.5874 35.424 13.5186 35.2516 13.5186 35.1138C13.5186 34.9758 13.5874 34.8035 13.7598 34.6656C13.9322 34.5277 14.1734 34.4588 14.4837 34.4588C19.7231 34.5277 24.997 34.4588 30.2363 34.3209C30.5121 34.3209 30.7879 34.3899 30.9601 34.5277C31.1325 34.6656 31.2015 34.838 31.2015 34.9758C31.2015 35.286 30.8913 35.6308 30.2708 35.6652C25.0314 35.8376 19.7575 35.8721 14.4837 35.8031ZM30.2708 35.355C25.0314 35.4929 19.7575 35.5274 14.4837 35.4929C13.8976 35.4929 13.8976 34.838 14.4837 34.838C19.7575 34.9069 24.997 34.838 30.2708 34.7001C30.8913 34.6656 30.8567 35.3206 30.2708 35.355Z" fill="black"/>
<path d="M29.9947 20.1196C35.0618 20.1885 40.1288 20.1196 45.1959 20.0162C45.7818 20.0162 45.7818 19.3612 45.1959 19.3612C40.1288 19.4992 35.0618 19.5336 29.9947 19.4646C29.4432 19.4646 29.4432 20.0851 29.9947 20.1196Z" fill="black"/>
<path fill-rule="evenodd" clip-rule="evenodd" d="M29.9949 20.4642C29.7191 20.4642 29.4778 20.3608 29.3055 20.223C29.1676 20.085 29.0986 19.9127 29.0986 19.7748C29.0986 19.6369 29.1676 19.4645 29.34 19.3267C29.5123 19.1889 29.7536 19.1199 30.0293 19.1199C35.0964 19.1889 40.1634 19.1199 45.2304 19.0165C45.5062 19.0165 45.7475 19.0855 45.9199 19.2233C46.0923 19.3611 46.1611 19.5335 46.1267 19.6714C46.1267 19.9816 45.8509 20.3264 45.2304 20.3608C40.1634 20.4642 35.0964 20.4986 29.9949 20.4642ZM45.2304 19.9816C40.1634 20.1195 35.0964 20.154 30.0293 20.085C29.4434 20.085 29.4778 19.4301 30.0293 19.4301C35.0964 19.4991 40.1634 19.4301 45.2304 19.3267C45.8165 19.3267 45.782 19.9816 45.2304 19.9816Z" fill="black"/>
<path d="M14.5523 40.0775C20.1019 40.1464 25.617 40.0775 31.1667 39.9741C31.7871 39.9741 31.7871 39.3191 31.1667 39.3191C25.617 39.457 20.1019 39.4915 14.5523 39.4225C13.9318 39.4225 13.9318 40.043 14.5523 40.0775Z" fill="black"/>
<path fill-rule="evenodd" clip-rule="evenodd" d="M14.5524 40.4221C14.2422 40.4221 14.0008 40.3187 13.794 40.1808C13.6217 40.0429 13.5527 39.8706 13.5527 39.7327C13.5527 39.5948 13.6217 39.4224 13.794 39.2846C13.9664 39.1468 14.2422 39.0778 14.5524 39.0778C20.0675 39.1466 25.6172 39.0778 31.1323 38.9744C31.4425 38.9744 31.7183 39.0432 31.8906 39.1812C32.063 39.319 32.1319 39.4914 32.1319 39.6292C32.1319 39.9395 31.8217 40.2843 31.1667 40.3187C25.6516 40.4221 20.1019 40.4565 14.5524 40.4221ZM31.1667 39.9395C25.6172 40.0773 20.1019 40.1119 14.5524 40.0429C13.9319 40.0429 13.9319 39.388 14.5524 39.388C20.1019 39.457 25.6172 39.388 31.1667 39.2846C31.7872 39.2846 31.7872 39.9395 31.1667 39.9395Z" fill="black"/>
<path d="M37.0266 71.5827C36.4406 71.4793 36.0269 70.9623 35.8201 70.4107C35.6133 69.8592 35.6133 69.2732 35.5789 68.6873C35.3031 56.5884 35.5444 44.4895 35.9581 32.4251C35.9925 31.5978 36.0269 30.7361 36.3371 29.9433C36.6474 29.1504 37.6126 28.4956 38.1296 28.3232C38.6121 28.1509 40.6803 27.9095 42.0591 27.9785C49.4357 28.3232 56.8466 28.6679 64.2232 29.0126C64.8436 29.0126 65.5329 29.3228 65.9122 30.1157C66.2914 30.9084 66.2914 31.8046 66.2914 32.6664C66.1534 45.0754 66.0156 57.4845 65.8777 69.8936C65.8432 70.6865 65.2917 71.1001 64.5678 71.4103C63.844 71.7206 63.0511 71.755 62.2584 71.755C55.0198 71.9274 47.8156 71.9274 40.5769 71.824C39.2326 71.7895 37.8539 71.755 36.5785 71.3759" fill="white"/>
<path d="M37.1298 71.2724C36.0613 71.0311 35.9234 69.7557 35.9234 68.8596C35.8889 67.6531 35.8889 66.4466 35.8545 65.2402C35.82 62.8273 35.82 60.38 35.82 57.9671C35.82 53.1068 35.8889 48.2811 35.9923 43.4209C36.0613 41.008 36.0957 38.5951 36.1991 36.1823C36.2337 34.9758 36.2681 33.7693 36.3025 32.563C36.3371 31.5977 36.3025 30.3914 36.923 29.5985C37.3366 29.0815 37.9227 28.6678 38.5775 28.5644C39.3704 28.3921 40.1632 28.3576 40.9559 28.3232C42.0246 28.2886 43.0931 28.3576 44.1616 28.4266C45.3681 28.4955 46.5746 28.53 47.781 28.5989C52.6067 28.8402 57.4325 29.0471 62.2582 29.2883C62.8442 29.3227 63.4647 29.3573 64.0507 29.3573C64.4298 29.3917 64.7746 29.4261 65.1192 29.633C65.9809 30.219 66.0155 31.4599 66.0155 32.3906C66.0155 34.769 65.9465 37.1818 65.9465 39.5602C65.8775 44.4205 65.8431 49.2463 65.7741 54.1065C65.7053 58.9667 65.6707 63.7925 65.6019 68.6527C65.6019 68.9284 65.6019 69.2386 65.6019 69.5144C65.6019 69.7557 65.6019 70.0315 65.5329 70.2383C65.395 70.583 65.0848 70.7898 64.74 70.9622C63.7749 71.4448 62.7064 71.4102 61.6723 71.4102C59.2594 71.4792 56.8465 71.5136 54.3991 71.5136C49.5734 71.5482 44.7821 71.5482 39.9564 71.4448C38.8533 71.4102 37.7503 71.3414 36.6817 71.0311C36.2681 70.9277 36.0957 71.5482 36.5094 71.6516C37.6469 71.9963 38.8189 72.0652 39.9564 72.0997C41.1973 72.1341 42.4382 72.1341 43.6791 72.1686C46.1954 72.2031 48.6772 72.2031 51.1934 72.2031C53.6753 72.2031 56.1571 72.1686 58.6389 72.1341C59.8798 72.0997 61.1207 72.0997 62.3616 72.0652C63.3957 72.0307 64.4644 71.9618 65.3605 71.3758C65.7053 71.1346 65.9809 70.8588 66.1533 70.4451C66.3257 69.9625 66.2567 69.3421 66.2567 68.825C66.2567 67.5841 66.2912 66.3432 66.2912 65.1023C66.3257 62.6205 66.3602 60.1386 66.3602 57.6224C66.4291 52.6243 66.4636 47.5917 66.5325 42.5936C66.567 40.1118 66.6014 37.63 66.6014 35.1136L66.636 33.2523C66.636 32.6664 66.6704 32.1148 66.636 31.5289C66.567 30.5292 66.2567 29.4607 65.3261 28.9436C64.9469 28.7023 64.5332 28.6678 64.0852 28.6678C63.4991 28.6334 62.8787 28.5989 62.2928 28.5989C61.0519 28.53 59.811 28.4955 58.57 28.4266C56.0882 28.3232 53.6064 28.1852 51.09 28.0818C48.6082 27.9784 46.1264 27.8406 43.6102 27.7372C42.5761 27.7027 41.542 27.6338 40.4734 27.7027C39.715 27.7372 38.9223 27.8061 38.1984 27.9784C37.4746 28.1852 36.7852 28.7023 36.3371 29.3227C35.7166 30.1846 35.6821 31.3909 35.6477 32.425C35.5787 34.9068 35.4753 37.3886 35.4064 39.905C35.2684 44.9031 35.1996 49.9011 35.165 54.8993C35.165 57.4156 35.165 59.8974 35.165 62.4136C35.165 63.6546 35.1996 64.8955 35.1996 66.1364C35.1996 66.7568 35.234 67.3773 35.234 67.9977C35.234 68.5838 35.234 69.1698 35.303 69.7557C35.4408 70.6864 35.9234 71.686 36.923 71.9273C37.3712 71.9963 37.5434 71.3758 37.1298 71.2724Z" fill="black"/>
<path d="M50.0906 72.3755C47.9536 72.3755 45.8164 72.3755 43.6448 72.3411H43.1967C42.1281 72.3411 40.9906 72.3066 39.8876 72.2721C39.0258 72.2377 38.1297 72.2032 37.199 72.0308C37.0956 72.0653 36.9922 72.0998 36.8542 72.0653C35.9236 71.8585 35.2687 70.9968 35.0963 69.7558C35.0274 69.2732 35.0274 68.7562 35.0274 68.3081V67.9635C35.0274 67.343 34.9929 66.7225 34.9929 66.1021C34.9584 64.8612 34.9584 63.6203 34.9584 62.3794C34.924 59.932 34.924 57.3812 34.9584 54.8649C34.9929 50.1771 35.0619 45.2823 35.1997 39.8706C35.2687 37.3544 35.3376 34.8725 35.4411 32.3907V32.2528C35.4755 31.2187 35.5099 30.0468 36.1649 29.185C36.682 28.4956 37.4058 27.9786 38.1297 27.7718C38.8536 27.5649 39.6463 27.5305 40.4047 27.4615H40.4391C41.3698 27.3925 42.3349 27.4615 43.2656 27.496L64.0508 28.4612C64.4645 28.4956 64.9471 28.53 65.3951 28.7714C66.2224 29.2195 66.705 30.1846 66.8084 31.4945C66.8429 31.9771 66.8429 32.4252 66.8429 32.9078L66.7395 42.9039L66.4638 68.7907C66.4638 68.8941 66.4638 69.032 66.4638 69.1354C66.4638 69.5835 66.4982 70.0316 66.3258 70.4453C66.188 70.8244 65.8778 71.1691 65.4641 71.4448C64.499 72.0653 63.3959 72.1343 62.3963 72.1687C61.1554 72.2032 59.9145 72.2377 58.6736 72.2377C56.1573 72.2721 53.6755 72.3066 51.2281 72.3066C50.8145 72.3755 50.4698 72.3755 50.0906 72.3755ZM37.5092 71.7206C38.3365 71.8585 39.1638 71.893 39.9565 71.9274C41.0596 71.9619 42.1626 71.9619 43.2656 71.9964H43.7138C46.23 72.0308 48.7463 72.0308 51.2281 72.0308C53.6755 72.0308 56.1917 71.9964 58.6736 71.9619C59.9145 71.9274 61.1554 71.9274 62.3963 71.893C63.327 71.8585 64.43 71.7896 65.2917 71.238C65.6365 70.9967 65.8778 70.721 66.0156 70.4107C66.1536 70.0661 66.1536 69.6524 66.119 69.2388C66.119 69.101 66.119 68.9975 66.119 68.8596L66.5326 32.9766C66.5326 32.5286 66.5326 32.046 66.4982 31.5979C66.4292 30.7706 66.188 29.6675 65.2917 29.1505C64.9471 28.9437 64.6024 28.9092 64.1198 28.8748L43.3346 27.9096C42.4383 27.8752 41.4732 27.8062 40.5425 27.8752H40.5081C39.7497 27.9096 38.9914 27.9786 38.302 28.151C37.6471 28.3232 36.9922 28.8058 36.544 29.4263C35.9581 30.2191 35.9236 31.3221 35.8891 32.2873V32.4252C35.8201 34.8725 35.7167 37.3888 35.6479 39.8706C35.5099 45.2479 35.4065 50.1425 35.4065 54.8305C35.4065 57.3468 35.4065 59.8975 35.4065 62.3448C35.4065 63.5857 35.4411 64.8266 35.4411 66.0675C35.4411 66.688 35.4755 67.3085 35.4755 67.9289V68.2737C35.4755 68.7562 35.4755 69.2388 35.5445 69.6869C35.5789 69.9627 35.7167 70.6521 36.1649 71.1691C36.1994 71.1002 36.2338 71.0312 36.3028 70.9623L36.3372 70.9278C35.8201 70.3073 35.8201 69.3078 35.7857 68.8596C35.7513 67.7566 35.7513 66.6191 35.7167 65.5161V65.2403C35.6823 62.8619 35.6823 60.4146 35.6823 57.9672C35.6823 53.3482 35.7513 48.5914 35.8547 43.421C35.9236 41.1115 35.9581 38.6987 36.0615 36.1823C36.0959 34.976 36.1304 33.7695 36.1649 32.563V32.2528C36.1994 31.3221 36.2338 30.2536 36.8198 29.4953C37.2679 28.9092 37.9229 28.53 38.5778 28.3922C39.4395 28.2198 40.3357 28.1854 40.9906 28.151C41.8179 28.1164 42.6451 28.151 43.4724 28.2198C43.7138 28.2198 43.955 28.2544 44.1963 28.2544L64.0854 29.185C64.4645 29.2195 64.8781 29.2539 65.2229 29.4953C66.119 30.1157 66.188 31.3221 66.188 32.3907C66.188 34.0107 66.1536 35.6308 66.1536 37.2164C66.1536 38.0093 66.119 38.8021 66.119 39.5948L65.7744 69.6524C65.7744 69.8592 65.7744 70.1005 65.6709 70.3419C65.4986 70.7555 65.1195 70.9967 64.8092 71.1691C63.9474 71.6172 62.9479 71.6172 62.0172 71.6516H61.638C59.2251 71.7206 56.7778 71.755 54.3649 71.755C50.1251 71.7896 45.0581 71.824 39.9221 71.6862C39.1292 71.6516 38.302 71.6172 37.5092 71.4794C37.5437 71.5482 37.5437 71.6516 37.5092 71.755C37.5092 71.6862 37.5092 71.7206 37.5092 71.7206ZM36.544 71.2036C36.5096 71.2036 36.4751 71.2036 36.4751 71.238C36.4406 71.2725 36.4062 71.3414 36.4406 71.4104C36.4406 71.4448 36.4751 71.4794 36.544 71.5138C36.7508 71.5828 36.9576 71.6172 37.1645 71.6862C37.1645 71.6516 37.199 71.6516 37.199 71.6516C37.199 71.6172 37.199 71.5138 37.0956 71.4794L36.8888 71.4448C36.7508 71.3414 36.6474 71.2725 36.544 71.2036ZM36.682 70.8589C37.7505 71.1691 38.888 71.238 39.9221 71.2725C45.0581 71.4104 50.0906 71.376 54.3649 71.3414C56.7778 71.307 59.2251 71.2725 61.638 71.238H62.0172C62.9133 71.238 63.844 71.2036 64.6369 70.7899C64.9126 70.6521 65.2229 70.4797 65.3263 70.1695C65.3951 69.9971 65.3951 69.8248 65.3951 69.618V68.6528L65.7054 39.5604C65.7054 38.7675 65.7399 37.9748 65.7399 37.182C65.7744 35.5964 65.7744 33.9763 65.7744 32.3562C65.7744 31.3566 65.7054 30.288 64.9815 29.7365C64.6713 29.5297 64.3611 29.4953 64.0164 29.4953L44.1274 28.5646C43.8861 28.5646 43.6448 28.53 43.4036 28.53C42.6107 28.4956 41.7834 28.4266 40.9562 28.4612C40.3013 28.4956 39.405 28.53 38.5778 28.7024C37.9917 28.8058 37.4403 29.185 37.0266 29.7021C36.4751 30.357 36.4751 31.3911 36.4406 32.2528V32.563C36.4062 33.7695 36.3717 34.976 36.3372 36.1823C36.2683 38.6641 36.1994 41.1115 36.1304 43.421C36.027 48.5914 35.9581 53.3482 35.9581 57.9672C35.9581 60.4146 35.9581 62.8619 35.9925 65.2403V65.5161C35.9925 66.6191 36.027 67.7566 36.0615 68.8596C36.0959 69.5835 36.1994 70.4453 36.682 70.8589Z" fill="black"/>
<path d="M47.2292 33.5282C51.8137 33.4938 56.3981 33.5282 60.9826 33.7006C61.2583 33.7006 61.5341 33.735 61.7409 33.9074C61.9133 34.0453 61.9822 34.2521 62.0512 34.4589C62.5682 36.079 62.3614 37.837 62.1546 39.5605C62.1201 39.9052 62.0512 40.2498 61.8788 40.5256C61.3963 41.3529 60.2932 41.3873 59.3625 41.3529C56.5015 41.215 54.3299 41.1805 51.469 41.0427C47.9186 40.9737 44.3682 40.8703 40.8179 40.8014C40.6455 40.8014 40.5076 40.8014 40.3697 40.7324C39.9906 40.5601 39.9561 40.043 39.9561 39.5949C39.9906 38.3196 40.025 37.0097 40.0595 35.7344C40.094 35.0449 40.1629 34.2177 40.7833 33.873C41.0591 33.7006 41.4038 33.7006 41.714 33.7006C43.6788 33.6316 45.6436 33.5972 47.6083 33.5628" fill="url(#paint6_radial_1206_374)"/>
<path d="M47.2298 33.8729C51.1593 33.8385 55.0544 33.8729 58.984 33.9763C59.4665 33.9763 59.9835 34.0109 60.4662 34.0109C60.7764 34.0109 61.3968 33.9419 61.6037 34.2177C61.7071 34.3555 61.776 34.5623 61.8105 34.7347C61.8794 34.976 61.9139 35.1828 61.9483 35.424C62.0173 35.8722 62.0517 36.3203 62.0517 36.7684C62.0517 37.6646 61.9483 38.5609 61.8105 39.457C61.776 39.8362 61.7071 40.2154 61.4658 40.4911C61.259 40.7325 60.9488 40.8359 60.673 40.9047C59.9491 41.0771 59.1563 40.9737 58.4324 40.9393C57.5363 40.9047 56.64 40.8703 55.7438 40.8359C53.9169 40.7669 52.09 40.6979 50.2631 40.629C48.2983 40.5945 46.3681 40.5256 44.4033 40.4911C43.4381 40.4567 42.4385 40.4567 41.4733 40.4222C41.2665 40.4222 41.0252 40.4222 40.8184 40.4222C40.646 40.4222 40.4738 40.4222 40.3704 40.2843C40.198 40.043 40.2669 39.595 40.2669 39.3192C40.3014 38.354 40.3358 37.3888 40.3704 36.3893C40.4048 35.7343 40.3014 34.8381 40.715 34.2865C40.9563 33.9763 41.4044 33.9763 41.7835 33.9763C42.2662 33.9763 42.7488 33.9419 43.2658 33.9419C44.2309 33.9075 45.2306 33.9075 46.1957 33.8729C46.6783 33.8729 47.1608 33.8385 47.609 33.8385C48.0226 33.8385 48.0226 33.1836 47.609 33.1836C46.5749 33.218 45.5063 33.218 44.4722 33.2525C43.9207 33.2525 43.4037 33.287 42.8522 33.287C42.3696 33.287 41.8525 33.287 41.3355 33.3214C40.9218 33.3559 40.5082 33.4938 40.2324 33.804C39.9912 34.0797 39.8533 34.4245 39.7843 34.8036C39.7154 35.2172 39.7154 35.6309 39.6809 36.0445C39.6809 36.5615 39.6465 37.0786 39.6465 37.5956C39.6465 38.1127 39.6119 38.6297 39.6119 39.1468C39.6119 39.5604 39.5775 39.974 39.6809 40.3533C39.8188 40.7325 40.0946 40.9737 40.5082 41.0427C40.9908 41.1115 41.5079 41.0771 42.0249 41.0771C44.1275 41.1115 46.1957 41.1805 48.2983 41.215C50.3321 41.2495 52.3658 41.3529 54.3994 41.4218C55.3301 41.4563 56.2608 41.4908 57.1915 41.5252C58.0877 41.5597 59.0184 41.6631 59.9491 41.6286C60.6385 41.5942 61.4658 41.4908 61.9483 40.9047C62.2241 40.5945 62.3275 40.2154 62.3965 39.8018C62.4654 39.3192 62.5343 38.8365 62.5688 38.3195C62.6722 37.3544 62.7067 36.3893 62.5688 35.424C62.4999 34.976 62.3965 34.4934 62.2241 34.0797C62.0517 33.6661 61.7415 33.4248 61.2934 33.3559C60.8108 33.287 60.2593 33.287 59.7767 33.287C59.2597 33.287 58.7426 33.2525 58.2601 33.2525C57.1915 33.218 56.123 33.218 55.0544 33.1836C52.9517 33.149 50.8491 33.149 48.7465 33.149C48.2294 33.149 47.7124 33.149 47.1608 33.149C46.8162 33.218 46.8162 33.8729 47.2298 33.8729Z" fill="url(#paint7_radial_1206_374)"/>
<path d="M46.2641 35.9066C45.7125 36.665 45.161 37.4577 44.6784 38.285C44.4716 38.6298 45.0232 38.9744 45.23 38.5952C45.7125 37.7679 46.2641 36.9752 46.8156 36.2168C47.0568 35.9066 46.5054 35.5963 46.2641 35.9066Z" fill="white"/>
<path d="M44.9549 38.9399C44.7481 38.9399 44.5757 38.8365 44.5067 38.6641C44.4379 38.5263 44.4379 38.3539 44.5067 38.1816C44.9893 37.3543 45.5408 36.5615 46.0924 35.8032C46.2992 35.5274 46.6095 35.5274 46.8163 35.6998C47.0231 35.8721 47.0575 36.1134 46.9197 36.3203C46.3681 37.0785 45.8166 37.8714 45.334 38.6987C45.2996 38.8709 45.1272 38.9399 44.9549 38.9399ZM46.4026 36.01C45.851 36.7683 45.2996 37.5612 44.817 38.3884C44.7825 38.4229 44.7825 38.4918 44.817 38.5263C44.8515 38.5953 44.9204 38.6297 44.9549 38.6297C44.9893 38.6297 45.0583 38.5953 45.0583 38.5607C45.5408 37.7334 46.0924 36.9407 46.6439 36.1823C46.6783 36.1479 46.7129 36.0789 46.6095 36.0445C46.6095 35.941 46.4715 35.9066 46.4026 36.01Z" fill="white"/>
<path d="M51.5037 35.5619C50.7454 36.6648 49.9871 37.7334 49.2287 38.8364C48.9874 39.1812 49.5389 39.4914 49.7803 39.1466C50.5386 38.0437 51.2969 36.975 52.0553 35.8721C52.2965 35.5618 51.7451 35.2516 51.5037 35.5619Z" fill="white"/>
<path d="M49.5045 39.4569C49.4011 39.4569 49.2632 39.4225 49.1943 39.3535C48.9875 39.2156 48.9185 38.9398 49.0909 38.6986L51.3659 35.4239C51.4693 35.2861 51.6417 35.1827 51.8139 35.2171C51.9863 35.2171 52.1587 35.355 52.2621 35.4929C52.331 35.6308 52.2965 35.8031 52.2276 35.941L49.9526 39.2156C49.7803 39.4225 49.6423 39.4569 49.5045 39.4569ZM51.7795 35.5963C51.7105 35.5963 51.6761 35.6308 51.6417 35.6652L49.3667 38.9398C49.3667 38.9743 49.2977 39.0433 49.4011 39.1122C49.4701 39.1467 49.5735 39.1811 49.6423 39.0777L51.9173 35.8031C51.9519 35.7342 51.9519 35.7342 51.9519 35.6997C51.9173 35.6652 51.8485 35.5963 51.7795 35.5963Z" fill="white"/>
<path d="M58.398 46.1442C58.329 49.6256 58.2946 53.1071 58.2256 56.5885C58.2256 57.0022 58.8805 57.0022 58.8805 56.5885C58.9495 53.1071 58.9839 49.6256 59.0529 46.1442C59.0529 45.7306 58.398 45.7306 58.398 46.1442Z" fill="black"/>
<path d="M58.5704 57.0711C58.3291 57.0711 58.0879 56.8987 58.0879 56.5885L58.2602 46.1441C58.2602 45.9718 58.3636 45.7995 58.5015 45.7305C58.6738 45.6271 58.8806 45.6271 59.0186 45.7305C59.1564 45.8339 59.2598 45.9718 59.2254 46.1441L59.053 56.5885C59.053 56.7263 58.984 56.8643 58.8806 56.9677C58.8118 57.0365 58.6738 57.0711 58.5704 57.0711ZM58.7428 46.0063C58.7083 46.0063 58.6738 46.0063 58.6394 46.0407C58.6049 46.0752 58.5704 46.1097 58.5704 46.1441V46.282L58.3981 56.5885C58.3981 56.6229 58.3981 56.6574 58.4325 56.6919C58.467 56.7263 58.5015 56.7263 58.536 56.7263C58.5704 56.7263 58.6049 56.7263 58.6394 56.6919C58.6738 56.6574 58.6738 56.6229 58.6738 56.5885L58.8462 46.1441C58.8462 46.0752 58.8462 46.0407 58.7772 46.0407C58.7772 46.0063 58.7428 46.0063 58.7428 46.0063Z" fill="black"/>
<path d="M62.3275 46.2474C62.3964 49.5911 62.3964 52.9346 62.293 56.3127C62.293 56.7263 62.9134 56.7263 62.948 56.3127C63.0514 52.969 63.0514 49.6255 62.9824 46.2474C62.948 45.7994 62.3275 45.7994 62.3275 46.2474Z" fill="black"/>
<path d="M62.6026 56.7607C62.3614 56.7607 62.1201 56.5883 62.1201 56.2781C62.2235 52.969 62.2235 49.591 62.1545 46.2474C62.1545 45.9372 62.3958 45.7649 62.6372 45.7649C62.8784 45.7649 63.1542 45.9372 63.1542 46.2474C63.2231 49.591 63.2231 52.969 63.1197 56.3126C63.1197 56.5883 62.844 56.7607 62.6026 56.7607ZM62.4992 46.213C62.5682 49.5565 62.5682 52.9346 62.4648 56.2781C62.4648 56.3815 62.5338 56.416 62.6026 56.416C62.6026 56.416 62.775 56.416 62.775 56.2781C62.8784 52.969 62.8784 49.591 62.8094 46.2474C62.8094 46.1096 62.6716 46.1096 62.6372 46.1096C62.6026 46.0751 62.4992 46.1096 62.4992 46.213Z" fill="black"/>
<path d="M58.7077 46.3854C59.9486 46.3854 61.2239 46.3854 62.4648 46.3854C62.8785 46.3854 62.8785 45.7305 62.4648 45.7305C61.2239 45.7305 59.9486 45.7305 58.7077 45.7305C58.2941 45.7305 58.2941 46.3854 58.7077 46.3854Z" fill="black"/>
<path d="M62.4654 46.5576H58.7082C58.398 46.5576 58.2256 46.3164 58.2256 46.075C58.2256 45.8338 58.398 45.5925 58.7082 45.5925H62.4654C62.7756 45.5925 62.948 45.8338 62.948 46.075C62.948 46.3164 62.81 46.5576 62.4654 46.5576ZM58.7082 45.9028C58.5702 45.9028 58.5702 46.0062 58.5702 46.0406C58.5702 46.075 58.5702 46.1784 58.7082 46.1784H62.4654C62.6032 46.1784 62.6032 46.075 62.6032 46.0406C62.6032 46.0062 62.6032 45.9028 62.4654 45.9028H58.7082Z" fill="black"/>
<path d="M58.3632 56.3816L58.2943 56.485C58.2598 56.5195 58.2598 56.554 58.2598 56.5884C58.2598 56.623 58.2598 56.6574 58.2598 56.7264C58.2598 56.7608 58.2943 56.7952 58.3287 56.8298C58.3632 56.8642 58.3977 56.8986 58.4322 56.8986C58.5011 56.9332 58.6045 56.9676 58.6734 56.9332C58.7424 56.8986 58.8458 56.8642 58.8802 56.7952L58.9492 56.6918C58.9836 56.6574 58.9836 56.623 58.9836 56.5884C58.9836 56.554 58.9836 56.5195 58.9836 56.4506C58.9836 56.4161 58.9492 56.3816 58.9148 56.3472C58.8802 56.3127 58.8458 56.2782 58.8114 56.2782C58.7424 56.2438 58.639 56.2093 58.57 56.2438C58.5011 56.2438 58.4322 56.2782 58.3632 56.3816Z" fill="black"/>
<path d="M58.6042 56.9677C59.2935 57.0022 59.9829 56.9677 60.6724 56.8988C61.3617 56.8643 62.0167 56.7954 62.706 56.7609C63.1196 56.7264 63.1196 56.0715 62.706 56.1059C62.0167 56.1405 61.3617 56.2093 60.6724 56.2439C59.9829 56.2783 59.2935 56.3473 58.6042 56.3127C58.1905 56.3127 58.1905 56.9332 58.6042 56.9677Z" fill="black"/>
<path d="M59.1564 57.1745C58.9496 57.1745 58.7772 57.1745 58.5704 57.1401C58.2257 57.1055 58.0879 56.8298 58.0879 56.5885C58.1223 56.3128 58.3291 56.1404 58.5704 56.1404C59.1908 56.1748 59.8458 56.1404 60.4663 56.106L62.6379 55.968C62.9136 55.968 63.1204 56.1404 63.1204 56.4162C63.1549 56.6574 62.9826 56.9332 62.6379 56.9677L60.4663 57.1055C60.0871 57.1401 59.639 57.1745 59.1564 57.1745ZM58.5704 56.4851C58.5015 56.4851 58.467 56.5196 58.467 56.5885C58.467 56.6574 58.5015 56.7609 58.6049 56.7609C59.2254 56.7953 59.8803 56.7609 60.5007 56.7264L62.6723 56.5885C62.8102 56.5885 62.8102 56.4506 62.8102 56.4162C62.8102 56.3472 62.7757 56.2782 62.6723 56.3128L60.5007 56.4506C59.8803 56.4851 59.2254 56.554 58.5704 56.4851Z" fill="black"/>
<path d="M58.7077 51.797C60.0175 51.6936 61.3273 51.6246 62.6372 51.6246C63.0509 51.6246 63.0509 50.9697 62.6372 50.9697C61.3273 50.9697 60.0175 51.0387 58.7077 51.1421C58.2941 51.1765 58.2941 51.8314 58.7077 51.797Z" fill="black"/>
<path d="M58.6735 51.9694C58.5357 51.9694 58.3979 51.9004 58.2944 51.797C58.191 51.6592 58.191 51.4524 58.2599 51.28C58.3289 51.1076 58.5012 51.0042 58.6735 51.0042C59.9834 50.9008 61.2933 50.8319 62.6031 50.8319C62.9133 50.8319 63.0857 51.0732 63.0857 51.3144C63.0857 51.5558 62.9133 51.797 62.6031 51.797C61.2933 51.797 59.9834 51.866 58.6735 51.9694C58.708 51.9694 58.708 51.9694 58.6735 51.9694ZM62.6376 51.1421C61.3277 51.1421 60.0179 51.211 58.7081 51.3144C58.6391 51.3144 58.6047 51.349 58.5701 51.4178C58.5357 51.4868 58.5357 51.5558 58.5701 51.5902C58.5701 51.5902 58.6046 51.6246 58.6735 51.6246C59.9834 51.5212 61.2933 51.4524 62.6031 51.4524C62.741 51.4524 62.741 51.349 62.741 51.3144C62.7755 51.2455 62.7755 51.1421 62.6376 51.1421Z" fill="black"/>
<path d="M58.4671 59.2426C58.3636 61.9312 58.3636 64.9991 58.536 67.6532L58.6049 67.7566C58.7428 67.9979 60.1216 67.6532 60.3284 67.6187C60.811 67.5843 61.2935 67.5843 61.7761 67.5843C61.9485 67.5843 62.3966 67.6877 62.5344 67.6187C62.7068 67.5497 62.7068 67.2741 62.6724 67.1017C62.6034 65.8952 62.569 64.6888 62.569 63.4479C62.569 62.0346 62.6379 60.6559 62.7068 59.2426L62.6378 58.9668C61.2591 59.1048 59.8803 59.1736 58.4671 59.2426Z" fill="url(#paint8_radial_1206_374)"/>
<path d="M58.1568 59.2425C58.0879 60.8971 58.0879 62.5516 58.0879 64.2062C58.0879 65.0334 58.1223 65.8951 58.1568 66.7224C58.1913 67.2395 58.0533 68.0667 58.7083 68.1357C59.1564 68.2047 59.639 68.0667 60.0871 67.9979C60.1561 67.9979 60.2249 67.9633 60.2939 67.9633C60.2249 67.9633 60.2939 67.9633 60.3629 67.9633C60.5007 67.9633 60.6041 67.9633 60.742 67.9289C61.1212 67.9289 61.5348 67.8945 61.914 67.9289C62.1897 67.9633 62.4999 68.0323 62.7413 67.8255C63.017 67.5842 62.9826 67.2395 62.9826 66.8948C62.9481 65.9986 62.9136 65.1024 62.8791 64.2406C62.8791 63.241 62.8791 62.2414 62.9136 61.2417C62.9481 60.7592 62.9481 60.2422 62.9826 59.7596C62.9826 59.5528 63.0515 59.3459 62.9826 59.1391C62.9481 59.0357 62.9481 58.9667 62.9136 58.8633C62.8791 58.7255 62.7413 58.6221 62.6033 58.6221C61.1902 58.7599 59.8113 58.8289 58.3981 58.8979C57.9845 58.8979 57.9845 59.5528 58.3981 59.5528C59.8113 59.4838 61.1902 59.4149 62.6033 59.277L62.2931 59.0357C62.3277 59.1047 62.3277 59.1735 62.3621 59.2425C62.3965 59.3459 62.3621 59.4838 62.3621 59.6217C62.3277 60.0354 62.3277 60.449 62.2931 60.8281C62.2587 61.6554 62.2243 62.4826 62.2243 63.3099C62.2243 64.1372 62.2243 64.93 62.2587 65.7573C62.2587 66.1709 62.2931 66.5846 62.3277 66.9638C62.3277 67.0326 62.2931 67.274 62.3277 67.3429C62.3621 67.4118 62.2931 67.3084 62.3621 67.3429C62.3621 67.3429 62.3277 67.3429 62.2931 67.3429C62.2243 67.3429 62.1553 67.3429 62.0863 67.3429C61.4658 67.274 60.7765 67.2395 60.1215 67.3429C59.7424 67.4118 59.3632 67.4808 58.984 67.5153C58.9152 67.5153 58.8118 67.5153 58.7428 67.5153C58.8118 67.5153 58.7083 67.5153 58.7083 67.5153C58.7083 67.5497 58.8806 67.6531 58.7772 67.5497C58.7428 67.4808 58.7428 67.5153 58.7772 67.5497C58.8118 67.6531 58.7772 67.5153 58.7772 67.5153C58.7772 67.4463 58.7772 67.3429 58.7772 67.274C58.7772 67.0672 58.7428 66.8948 58.7428 66.688C58.7083 65.9297 58.6738 65.1713 58.6738 64.413C58.6394 62.6895 58.6738 61.0005 58.7428 59.277C58.8118 58.8289 58.1568 58.8289 58.1568 59.2425Z" fill="url(#paint9_radial_1206_374)"/>
<path d="M39.4391 45.5237C39.2323 49.9703 39.1289 54.4169 39.1289 58.8635C39.1289 60.1389 39.1289 61.4143 39.1633 62.6896C39.1633 63.1032 39.8183 63.1032 39.8183 62.6896C39.7494 58.243 39.7838 53.7964 39.9562 49.3498C39.9906 48.0745 40.0596 46.7991 40.1286 45.5582C40.094 45.1101 39.4391 45.1101 39.4391 45.5237Z" fill="black"/>
<path d="M39.4743 63.1377C39.2331 63.1377 38.9918 62.9653 38.9573 62.6551C38.9229 61.4142 38.9229 60.1389 38.9229 58.829C38.9229 54.4168 39.0263 49.9358 39.2331 45.4892C39.2331 45.179 39.5089 45.0066 39.7846 45.0066C40.0259 45.0066 40.2672 45.179 40.2327 45.4892C40.1638 46.7645 40.1293 48.04 40.0604 49.2809C39.9225 53.693 39.8535 58.1741 39.9225 62.6207C39.9569 62.9653 39.7157 63.1377 39.4743 63.1377ZM39.4399 45.5236H39.6123C39.4055 49.9702 39.3021 54.4514 39.3021 58.8634C39.3021 60.1389 39.3021 61.4142 39.3365 62.6895C39.3365 62.8275 39.4743 62.8275 39.5089 62.8275C39.5433 62.8275 39.6467 62.8275 39.6467 62.6895C39.5777 58.243 39.6123 53.7619 39.7846 49.3498C39.8191 48.1089 39.888 46.8335 39.9569 45.5236C39.9569 45.4202 39.888 45.3858 39.8191 45.3858C39.8191 45.3858 39.6467 45.3858 39.6467 45.5236H39.4399Z" fill="black"/>
<path d="M54.5031 46.2474C54.4687 50.5906 54.5031 54.9683 54.6066 59.3115C54.6411 60.5524 54.6755 61.7588 54.71 62.9997C54.71 63.4133 55.365 63.4133 55.365 62.9997C55.2616 58.6565 55.1926 54.2789 55.1581 49.9357C55.1581 48.6948 55.1581 47.4883 55.1581 46.2474C55.1581 45.7994 54.5031 45.7994 54.5031 46.2474Z" fill="black"/>
<path d="M55.0197 63.4822C54.9163 63.4822 54.8475 63.4478 54.7785 63.4132C54.6406 63.3443 54.5371 63.172 54.5371 62.9996C54.5027 61.7588 54.4682 60.5523 54.4337 59.3114C54.3303 55.0026 54.2959 50.5906 54.3303 46.2474C54.3303 46.075 54.4337 45.9026 54.5717 45.8338C54.7439 45.7304 54.9507 45.7304 55.0887 45.8338C55.2265 45.9026 55.33 46.075 55.33 46.2474C55.33 47.4883 55.33 48.6947 55.33 49.9356C55.33 54.2788 55.3989 58.6909 55.5368 62.9996C55.5368 63.172 55.4678 63.3443 55.33 63.4132C55.2265 63.4478 55.1231 63.4822 55.0197 63.4822ZM54.8129 46.075C54.7785 46.075 54.7439 46.075 54.7095 46.1095C54.6751 46.144 54.6405 46.1784 54.6405 46.2129C54.6061 50.5561 54.6405 54.9682 54.7439 59.2768C54.7785 60.5178 54.8129 61.7242 54.8473 62.9651C54.8473 63.0341 54.8819 63.0686 54.9163 63.1031C54.9853 63.1375 55.0542 63.1375 55.0887 63.1031C55.1231 63.1031 55.1576 63.0686 55.1576 62.9996C55.0542 58.6565 54.9853 54.2788 54.9509 49.9356C54.9509 48.6947 54.9509 47.4883 54.9509 46.2474C54.9509 46.1784 54.9163 46.144 54.8819 46.144C54.8819 46.1095 54.8473 46.075 54.8129 46.075Z" fill="black"/>
<path d="M39.8532 45.8339C43.7139 45.9373 47.5744 46.0752 51.435 46.2131C52.5381 46.2475 53.6412 46.3165 54.7097 46.3509C55.1233 46.3854 55.1233 45.7304 54.7097 45.696C50.8491 45.4892 46.9884 45.3513 43.1279 45.2479C42.0248 45.2134 40.9218 45.179 39.8532 45.1445C39.4396 45.179 39.4396 45.8339 39.8532 45.8339Z" fill="black"/>
<path d="M54.7438 46.5577C53.6063 46.4889 52.5378 46.4543 51.4347 46.4199C47.6086 46.2475 43.7136 46.1097 39.8529 46.0407C39.6806 46.0407 39.5082 45.9373 39.4393 45.7994C39.3359 45.627 39.3704 45.4202 39.4393 45.2824C39.5427 45.1445 39.6806 45.0756 39.8529 45.0756C40.956 45.11 42.059 45.1445 43.162 45.179C46.9881 45.2824 50.8832 45.4548 54.7438 45.627C55.054 45.627 55.2264 45.9028 55.2264 46.1786C55.192 46.3509 55.0196 46.5577 54.7438 46.5577ZM39.8529 45.3858C39.8185 45.3858 39.784 45.3858 39.7495 45.4202C39.7151 45.4548 39.7151 45.4892 39.7151 45.5236C39.7151 45.5582 39.7151 45.627 39.7495 45.627C39.784 45.6616 39.8185 45.6616 39.8529 45.6616C43.7136 45.765 47.6431 45.9028 51.4347 46.0407C52.5378 46.0752 53.6409 46.1441 54.7094 46.1786C54.8128 46.1786 54.8472 46.1097 54.8472 46.0407C54.8472 46.0407 54.8472 45.8684 54.7094 45.8684C50.8488 45.696 46.9537 45.5236 43.1276 45.4202C42.0245 45.4202 40.956 45.3858 39.8529 45.3858Z" fill="black"/>
<path d="M39.4737 62.9309C43.4723 62.9997 47.4708 63.0687 51.4348 63.1721C52.5723 63.2066 53.7098 63.2066 54.8473 63.2411C55.2609 63.2411 55.2609 62.5861 54.8473 62.5861C50.8487 62.5172 46.8503 62.4483 42.8862 62.3449C41.7487 62.3104 40.6112 62.3104 39.4737 62.2759C39.0257 62.2759 39.0257 62.9309 39.4737 62.9309Z" fill="black"/>
<path d="M54.8474 63.3789L39.4394 63.1032C39.2672 63.1032 39.0948 62.9997 39.0258 62.8619C38.9224 62.6895 38.9224 62.4827 39.0258 62.3448C39.1292 62.207 39.2326 62.1036 39.4394 62.138L54.8474 62.4138C55.1576 62.4138 55.33 62.6896 55.33 62.9309C55.33 63.1721 55.1576 63.3789 54.8474 63.3789ZM39.4394 62.4482C39.405 62.4482 39.3706 62.4482 39.336 62.5172C39.3016 62.5516 39.3016 62.6551 39.336 62.6895C39.3706 62.724 39.405 62.7585 39.474 62.7585L54.8819 63.0343C54.9853 63.0343 55.0198 62.9309 55.0198 62.8963C55.0198 62.8619 55.0198 62.724 54.8819 62.724L39.4394 62.4482Z" fill="black"/>
<path d="M44.4376 45.696C44.2652 50.0392 44.0928 54.4168 43.955 58.76C43.9205 60.0009 43.886 61.2073 43.8516 62.4482C43.8516 62.8619 44.472 62.8619 44.5064 62.4482C44.6099 58.1051 44.7478 53.7273 44.9201 49.3842C44.9546 48.1432 45.0235 46.9369 45.058 45.696C45.0925 45.2823 44.472 45.2823 44.4376 45.696Z" fill="black"/>
<path d="M44.1964 62.931C43.9551 62.931 43.7139 62.7586 43.7139 62.4484C43.7483 61.2075 43.7827 60.001 43.8173 58.7601C43.9551 54.4515 44.093 50.0737 44.2998 45.6961C44.2998 45.3859 44.5756 45.2135 44.8168 45.2135C45.0582 45.2135 45.2994 45.3859 45.265 45.6961C45.196 46.937 45.1616 48.1435 45.127 49.3844C44.9548 53.693 44.8168 58.1052 44.7134 62.4484C44.679 62.793 44.4377 62.931 44.1964 62.931ZM44.7824 45.5583C44.748 45.5583 44.61 45.5583 44.61 45.6961C44.4377 50.0737 44.2653 54.4515 44.1275 58.7601C44.093 60.001 44.0585 61.2075 44.0241 62.4484C44.0241 62.5518 44.1275 62.5862 44.1619 62.5862C44.1964 62.5862 44.3343 62.5862 44.3343 62.4484C44.4377 58.1052 44.5756 53.693 44.748 49.3844C44.7824 48.1435 44.8514 46.937 44.8858 45.6961C44.9202 45.5927 44.8514 45.5583 44.7824 45.5583Z" fill="black"/>
<path d="M49.573 45.9028C49.5386 50.2114 49.4352 54.5546 49.2284 58.8633C49.1594 60.1042 49.125 61.3107 49.056 62.5516C49.0216 62.9653 49.6765 62.9653 49.711 62.5516C49.9522 58.2429 50.1246 53.9341 50.1935 49.5909C50.228 48.35 50.228 47.1437 50.228 45.9028C50.228 45.4891 49.573 45.4891 49.573 45.9028Z" fill="black"/>
<path d="M49.3322 62.9997C49.022 62.9997 48.8496 62.7929 48.8496 62.5171C48.9186 61.2762 48.9876 60.0698 49.022 58.8289C49.2288 54.5546 49.3322 50.2114 49.3667 45.8682C49.3667 45.558 49.608 45.3857 49.8493 45.3857C50.0905 45.3857 50.3319 45.558 50.3319 45.8682C50.3319 47.1092 50.2973 48.3156 50.2973 49.5565C50.2285 53.8307 50.0561 58.2085 49.8148 62.5171C49.8493 62.8619 49.5735 62.9997 49.3322 62.9997ZM49.7459 45.9028C49.7114 50.246 49.608 54.5892 49.4012 58.8634C49.3322 60.1043 49.2978 61.3107 49.2288 62.5516C49.2288 62.6551 49.2978 62.6895 49.3667 62.6895C49.3667 62.6895 49.539 62.6895 49.539 62.5516C49.7803 58.2429 49.9527 53.8997 50.0217 49.6255C50.0561 48.3846 50.0561 47.1781 50.0561 45.9372C50.0561 45.7994 49.9527 45.7994 49.9182 45.7994C49.8837 45.7648 49.7459 45.7648 49.7459 45.9028Z" fill="black"/>
<path d="M39.5085 51.0734C43.438 51.0389 47.3676 51.0044 51.2971 50.97C52.4001 50.97 53.5031 50.97 54.6406 50.9355C55.0543 50.9355 55.0543 50.2805 54.6406 50.2805C50.7111 50.3151 46.7815 50.3495 42.852 50.3839C41.7489 50.3839 40.646 50.3839 39.5085 50.4185C39.0948 50.4185 39.0948 51.0734 39.5085 51.0734Z" fill="black"/>
<path d="M39.508 51.2456C39.1978 51.2456 39.0254 51.0043 39.0254 50.763C39.0254 50.5218 39.1978 50.246 39.508 50.246L54.6402 50.1426C54.9504 50.1426 55.1228 50.3838 55.1228 50.6252C55.1228 50.8664 54.9504 51.1422 54.6402 51.1422L39.508 51.2456ZM54.6746 50.4872L39.5424 50.5906C39.4046 50.5906 39.4046 50.7286 39.4046 50.7286C39.4046 50.763 39.4046 50.8664 39.5424 50.8664L54.6746 50.763C54.8125 50.763 54.8125 50.6252 54.8125 50.5906C54.8125 50.5906 54.778 50.4872 54.6746 50.4872Z" fill="black"/>
<path d="M39.4743 57.1398C43.4728 57.0019 47.4713 57.0019 51.4353 57.1053C52.5728 57.1398 53.7103 57.1743 54.8478 57.2432C55.2614 57.2777 55.2614 56.6228 54.8478 56.5882C50.8493 56.416 46.8509 56.347 42.8868 56.416C41.7493 56.4504 40.6118 56.4504 39.4743 56.4848C39.0607 56.5193 39.0607 57.1743 39.4743 57.1398Z" fill="black"/>
<path d="M54.8817 57.4157C53.7097 57.3467 52.5378 57.3123 51.4347 57.2778C47.5052 57.1744 43.4722 57.1744 39.4737 57.3123C39.1635 57.3123 38.9912 57.0709 38.9912 56.8297C38.9912 56.5884 39.1635 56.3126 39.4737 56.3126C40.6112 56.2782 41.7833 56.2437 42.8862 56.2437C46.8503 56.1748 50.8833 56.2437 54.8817 56.4161C55.1919 56.4161 55.3643 56.6919 55.3643 56.9331C55.3298 57.1744 55.1575 57.4157 54.8817 57.4157ZM46.023 56.8641C47.8498 56.8641 49.6423 56.8987 51.4347 56.9331C52.5378 56.9675 53.7097 57.0021 54.8472 57.0709C54.9506 57.0709 54.9851 57.0021 54.9851 56.9331C54.9851 56.9331 54.9851 56.7607 54.8472 56.7607C50.8487 56.5884 46.8503 56.5195 42.8862 56.5884C41.7487 56.6229 40.6112 56.6229 39.4737 56.6573C39.3359 56.6573 39.3359 56.7953 39.3359 56.8297C39.3359 56.8641 39.3703 56.9675 39.4737 56.9675C41.6453 56.8987 43.8514 56.8641 46.023 56.8641Z" fill="black"/>
<defs>
<radialGradient id="paint0_radial_1206_374" cx="0" cy="0" r="1" gradientUnits="userSpaceOnUse" gradientTransform="translate(19.1456 56.5562) rotate(-90) scale(5.01484 6.26344)">
<stop stop-color="#587EDB"/>
<stop offset="1" stop-color="#1445C2"/>
</radialGradient>
<radialGradient id="paint1_radial_1206_374" cx="0" cy="0" r="1" gradientUnits="userSpaceOnUse" gradientTransform="translate(19.1438 56.8296) rotate(-90) scale(5.24169 6.47016)">
<stop stop-color="#587EDB"/>
<stop offset="1" stop-color="#1445C2"/>
</radialGradient>
<radialGradient id="paint2_radial_1206_374" cx="0" cy="0" r="1" gradientUnits="userSpaceOnUse" gradientTransform="translate(18.2737 23.1943) rotate(-90) scale(7.27573 3.93432)">
<stop stop-color="#587EDB"/>
<stop offset="1" stop-color="#1445C2"/>
</radialGradient>
<radialGradient id="paint3_radial_1206_374" cx="0" cy="0" r="1" gradientUnits="userSpaceOnUse" gradientTransform="translate(18.2782 23.394) rotate(-90) scale(7.48377 4.06479)">
<stop stop-color="#587EDB"/>
<stop offset="1" stop-color="#1445C2"/>
</radialGradient>
<radialGradient id="paint4_radial_1206_374" cx="0" cy="0" r="1" gradientUnits="userSpaceOnUse" gradientTransform="translate(18.4694 24.7043) rotate(-90) scale(8.90332 0.402029)">
<stop stop-color="#587EDB"/>
<stop offset="1" stop-color="#1445C2"/>
</radialGradient>
<radialGradient id="paint5_radial_1206_374" cx="0" cy="0" r="1" gradientUnits="userSpaceOnUse" gradientTransform="translate(18.4693 25.2209) rotate(-90) scale(9.42974 0.720417)">
<stop stop-color="#587EDB"/>
<stop offset="1" stop-color="#1445C2"/>
</radialGradient>
<radialGradient id="paint6_radial_1206_374" cx="0" cy="0" r="1" gradientUnits="userSpaceOnUse" gradientTransform="translate(51.1659 41.3613) rotate(-90) scale(3.99655 10.3552)">
<stop stop-color="#587EDB"/>
<stop offset="1" stop-color="#1445C2"/>
</radialGradient>
<radialGradient id="paint7_radial_1206_374" cx="0" cy="0" r="1" gradientUnits="userSpaceOnUse" gradientTransform="translate(51.1331 41.6356) rotate(-90) scale(4.32332 10.6479)">
<stop stop-color="#587EDB"/>
<stop offset="1" stop-color="#1445C2"/>
</radialGradient>
<radialGradient id="paint8_radial_1206_374" cx="0" cy="0" r="1" gradientUnits="userSpaceOnUse" gradientTransform="translate(60.5517 67.8417) rotate(-90) scale(4.52119 1.99087)">
<stop stop-color="#587EDB"/>
<stop offset="1" stop-color="#1445C2"/>
</radialGradient>
<radialGradient id="paint9_radial_1206_374" cx="0" cy="0" r="1" gradientUnits="userSpaceOnUse" gradientTransform="translate(60.5505 68.1545) rotate(-90) scale(4.85615 2.27491)">
<stop stop-color="#587EDB"/>
<stop offset="1" stop-color="#1445C2"/>
</radialGradient>
</defs>
</svg>
