<svg width="56" height="75" viewBox="0 0 56 75" fill="none" xmlns="http://www.w3.org/2000/svg">
<path fill-rule="evenodd" clip-rule="evenodd" d="M20.4361 56.2845C20.9041 58.6344 22.539 63.0558 24.0696 66.1106C24.1986 66.3679 24.3239 66.6172 24.4452 66.8588C26.2913 70.5327 27.2343 72.4094 26.6558 73.3672C26.0517 74.3675 23.7884 74.3656 19.1616 74.3619C18.8704 74.3617 18.5698 74.3614 18.2597 74.3614C13.5328 74.3614 9.5157 74.1188 9.33284 73.8225C8.53043 72.5269 5.24089 59.3189 5.63602 58.9805C5.87706 58.7749 7.58161 57.9779 9.42491 57.2098C11.2682 56.4409 14.1454 54.9793 15.8186 53.9614C17.4918 52.9429 19.0244 52.0879 19.2238 52.0611C19.4227 52.0342 19.9687 53.9346 20.4361 56.2845ZM18.3818 70.995C17.0634 71.1329 14.9056 71.1329 13.5865 70.995C12.2682 70.8577 13.3468 70.7446 15.9842 70.7446C18.6216 70.7446 19.7008 70.8577 18.3818 70.995Z" fill="white"/>
<path d="M48.9665 59.1976C49.0925 59.3234 48.3029 62.7869 47.2115 66.8941L45.2269 74.3614H36.3595C35.938 74.3614 35.5336 74.362 35.1459 74.3626C30.6123 74.3694 28.3566 74.3727 27.7401 73.3691C27.1296 72.3753 28.1265 70.3941 30.1106 66.451L30.1115 66.4492C30.2825 66.1093 30.4608 65.7549 30.6461 65.3852C32.3801 61.9249 33.9996 57.7161 34.2438 56.0316C34.4887 54.3477 34.779 52.8094 34.889 52.6134C35.0552 52.3165 48.2607 58.4926 48.9665 59.1976Z" fill="white"/>
<path d="M33.2273 56.1983L32.5048 58.0782L30.9613 56.1625C30.1123 55.1089 29.416 54.0578 29.4141 53.8267C29.4122 53.5955 30.3456 52.858 31.4888 52.1881L33.5668 50.9691L33.7579 52.6441C33.8628 53.5649 33.6243 55.1645 33.2273 56.1983Z" fill="white"/>
<path d="M30.6896 57.1408C30.6896 57.5035 31.2555 58.0092 31.9472 58.2647C33.1806 58.7206 33.1761 58.7908 31.7075 61.9159C30.2548 65.0072 30.1986 65.05 29.8105 63.3463C28.8834 59.2736 28.792 58.4486 29.1602 57.4901C29.5925 56.3656 30.6896 56.1153 30.6896 57.1408Z" fill="white"/>
<path d="M52.9946 67.0174C53.7381 69.9777 54.3462 72.6974 54.3462 73.0613C54.3462 73.4509 52.6103 73.7229 50.1219 73.7229C46.7115 73.7229 45.9654 73.546 46.2505 72.8053C46.4442 72.3002 46.9282 70.6476 47.3259 69.1336C49.6871 60.1414 49.9959 59.3853 50.8373 60.5347C51.2804 61.1401 52.251 64.057 52.9946 67.0174Z" fill="white"/>
<path d="M28.3962 63.8252C28.6999 66.0927 28.634 66.7402 28.1686 66.0602C27.5784 65.1994 27.1577 59.7257 27.7306 60.3661C27.8611 60.513 28.1609 62.0692 28.3962 63.8252Z" fill="white"/>
<path d="M25.2422 57.7378C25.7563 58.5686 24.9021 64.7831 24.2736 64.7831C24.0006 64.7831 23.3183 63.4389 22.7576 61.7959C21.5563 58.2742 21.5479 58.2046 22.3823 58.7193C22.7365 58.9383 23.1988 58.6676 23.4098 58.1184C23.8433 56.9901 24.6725 56.8177 25.2422 57.7378Z" fill="white"/>
<path d="M23.8912 52.8094C25.0191 53.6517 25.0274 53.8133 24.0351 55.7296C23.4571 56.8458 22.75 57.7589 22.4642 57.7589C21.6477 57.7589 20.4597 54.7009 20.4597 52.5981C20.4597 50.5719 20.9329 50.6013 23.8912 52.8094Z" fill="white"/>
<path d="M6.61489 67.071C7.54837 70.6125 8.31177 73.7012 8.31177 73.9355C8.31177 74.1699 6.58548 74.3614 4.47557 74.3614C4.38857 74.3614 4.30329 74.3615 4.21972 74.3615C2.46805 74.3626 1.46419 74.3633 0.994547 73.8627C0.364087 73.1907 0.696358 71.6155 1.47468 67.9256C1.50237 67.7944 1.53062 67.6604 1.55942 67.5238C2.7301 61.9638 3.74094 59.3055 4.40076 60.0494C4.68528 60.37 5.68141 63.5296 6.61489 67.071Z" fill="white"/>
<path d="M22.3753 48.4966C22.812 49.0222 24.2659 49.7801 25.6073 50.1811C27.7204 50.8133 28.4096 50.7309 30.7714 49.5643C32.2701 48.8236 33.5885 48.3089 33.7004 48.4206C33.8129 48.5324 33.3206 49.3657 32.6064 50.2718C29.3342 54.4269 22.6278 53.5036 20.899 48.6595C20.4105 47.2917 21.2935 47.1946 22.3753 48.4966Z" fill="white"/>
<path fill-rule="evenodd" clip-rule="evenodd" d="M37.557 34.1616C37.8691 38.7126 37.7386 39.514 36.1639 42.7292C31.6129 52.0195 23.3669 52.0074 18.8089 42.7023C16.8128 38.6283 16.4049 33.2466 17.8319 29.822C18.8159 27.4599 19.3447 27.3463 22.7436 28.7645C26.035 30.1387 30.6966 30.018 33.6844 28.4816C36.7783 26.891 37.089 27.3463 37.557 34.1616ZM33.5668 33.615C32.8635 33.2919 31.8565 32.8679 31.329 32.6725C30.5004 32.366 30.5055 32.3104 31.3667 32.267C31.9146 32.2395 32.9216 32.6636 33.6045 33.2095C34.8257 34.1865 34.825 34.1935 33.5668 33.615ZM22.1643 33.7485C20.9763 34.0339 20.4943 33.9547 20.7634 33.5192C20.9898 33.154 21.9245 32.8551 22.842 32.8551C24.8458 32.8551 24.6143 33.161 22.1643 33.7485ZM23.1022 37.4955C22.1336 38.4629 20.7807 37.1584 21.3139 35.7714C21.5256 35.221 22.0038 34.7708 22.3778 34.7708C23.4136 34.7708 23.9206 36.6782 23.1022 37.4955ZM30.5458 37.4368C30.0426 36.9342 30.0809 36.4611 30.6845 35.7344C31.6832 34.5326 32.8475 34.7836 33.1345 36.2625C33.3858 37.5568 31.5157 38.4055 30.5458 37.4368ZM25.5664 44.3447C26.6597 44.929 27.2345 44.8805 28.338 44.1104C30.0215 42.9361 30.0502 42.9284 30.0502 43.6334C30.0502 43.9418 29.2133 44.5407 28.1903 44.9635C26.7677 45.5522 26.0031 45.5586 24.9385 44.9897C24.1732 44.5803 23.6911 44.1021 23.8669 43.9265C24.0427 43.7509 24.8074 43.9392 25.5664 44.3447Z" fill="white"/>
<path d="M39.0513 39.4463C38.229 40.2675 38.0864 38.1022 38.8415 36.2599C39.2354 35.2995 39.3588 35.4189 39.5308 36.924C39.6465 37.9323 39.4304 39.0677 39.0513 39.4463Z" fill="white"/>
<path d="M30.8258 23.1618C31.4281 23.4006 29.8456 23.5986 27.3093 23.6024C23.8004 23.6069 22.2391 23.9096 20.7794 24.868C19.1753 25.9223 19.0052 25.9466 19.7411 25.0194C21.2609 23.1024 27.8783 21.9939 30.8258 23.1618Z" fill="white"/>
<path d="M27.4928 19.9735C27.4928 20.264 26.6808 20.3822 25.6878 20.2366C24.6955 20.091 22.8254 20.4134 21.532 20.953C20.2392 21.4932 19.181 21.7915 19.181 21.6171C19.181 21.4422 20.1158 20.8936 21.2589 20.3975C23.5415 19.4064 27.4928 19.1376 27.4928 19.9735Z" fill="white"/>
<path d="M6.71335 39.2407C6.49597 39.5919 5.88665 39.8793 5.35917 39.8793C4.8317 39.8793 4.57787 39.5919 4.79525 39.2407C5.01264 38.8895 5.62195 38.6021 6.14943 38.6021C6.67691 38.6021 6.93074 38.8895 6.71335 39.2407Z" fill="white"/>
<path d="M14.1486 9.46855L16.1971 9.87786L14.8634 11.3089C13.9158 12.3255 13.63 13.2558 13.8762 14.5189C14.2118 16.236 14.1665 16.2705 12.5463 15.5336C11.2791 14.957 10.4786 14.948 9.27082 15.4978C7.76895 16.1811 7.6724 16.1153 7.6724 14.4014C7.6724 13.3982 7.24083 12.2201 6.71335 11.7827C5.36301 10.6633 5.52029 9.98897 7.18712 9.75207C8.01958 9.6333 8.99269 8.76741 9.51058 7.68505L10.4019 5.82238L11.2509 7.44112C11.7829 8.45452 12.8653 9.21185 14.1486 9.46855Z" fill="white"/>
<path d="M44.1886 9.46663C46.2122 9.87084 46.2179 9.88297 45.0159 11.2099C44.3503 11.9442 43.8938 13.2214 44.0019 14.0464C44.1828 15.4244 44.0198 15.5183 42.0013 15.1907C40.7021 14.9806 39.6241 15.1249 39.3645 15.5438C38.5174 16.9122 37.7041 16.2328 37.8524 14.2814C37.9528 12.9666 37.637 12.1045 36.9036 11.6952C35.2931 10.7948 35.5629 9.86701 37.4362 9.86701C38.6906 9.86701 39.2296 9.40341 39.768 7.86066L40.4687 5.85367L41.3095 7.45645C41.8319 8.45196 42.922 9.21312 44.1886 9.46663Z" fill="white"/>
<path fill-rule="evenodd" clip-rule="evenodd" d="M39.4534 6.98583C38.6779 8.61032 37.9688 9.22845 36.8806 9.22845C34.63 9.22845 34.3551 9.92256 35.9401 11.6071C36.9733 12.706 37.3122 13.7411 37.1715 15.3701L36.9778 17.6172L39.0372 16.5534C40.6554 15.7175 41.4265 15.6396 42.6368 16.1907C45.0236 17.2768 45.3426 17.0616 44.9475 14.6313C44.6572 12.8452 44.8823 12.0496 46.0184 10.8421L47.4564 9.31338L45.1668 8.88427C43.6125 8.59308 42.5 7.86002 41.7008 6.59887L40.5244 4.74321L39.4534 6.98583ZM45.0159 11.2099C46.2179 9.88297 46.2122 9.87084 44.1886 9.46663C42.922 9.21312 41.8319 8.45196 41.3095 7.45645L40.4687 5.85367L39.768 7.86066C39.2296 9.40341 38.6906 9.86701 37.4362 9.86701C35.5629 9.86701 35.2931 10.7948 36.9036 11.6952C37.637 12.1045 37.9528 12.9666 37.8524 14.2814C37.7041 16.2328 38.5174 16.9122 39.3645 15.5438C39.6241 15.1249 40.7021 14.9806 42.0013 15.1907C44.0198 15.5183 44.1828 15.4244 44.0019 14.0464C43.8938 13.2214 44.3503 11.9442 45.0159 11.2099Z" fill="black"/>
<path fill-rule="evenodd" clip-rule="evenodd" d="M9.32453 6.83385C8.53874 8.66077 7.92687 9.22845 6.74276 9.22845C4.62965 9.22845 4.25051 10.1046 5.76965 11.4768C6.62256 12.2482 7.03304 13.4404 7.03304 15.1479V17.6766L8.69667 16.5878C10.3015 15.538 11.0802 15.54 13.6741 16.6012C14.7496 17.0412 14.8435 16.8586 14.5418 14.918C14.2719 13.1824 14.5334 12.3887 15.8307 11.0075L17.4579 9.27443L14.8864 8.86383C12.8321 8.53625 12.1179 8.04967 11.3347 6.44625L10.3539 4.43926L9.32453 6.83385ZM16.1971 9.87786L14.1486 9.46855C12.8653 9.21185 11.7829 8.45452 11.2509 7.44112L10.4019 5.82238L9.51058 7.68505C8.99269 8.76741 8.01958 9.6333 7.18712 9.75207C5.52029 9.98897 5.36301 10.6633 6.71335 11.7827C7.24083 12.2201 7.6724 13.3982 7.6724 14.4014C7.6724 16.1153 7.76895 16.1811 9.27082 15.4978C10.4786 14.948 11.2791 14.957 12.5463 15.5336C14.1665 16.2705 14.2118 16.236 13.8762 14.5189C13.63 13.2558 13.9158 12.3255 14.8634 11.3089L16.1971 9.87786Z" fill="black"/>
<path fill-rule="evenodd" clip-rule="evenodd" d="M14.7579 24.2346C14.919 22.4217 17.1581 20.1178 20.1401 18.697C22.163 17.7334 23.7391 17.5291 27.6801 17.7194C32.9632 17.9748 35.8845 19.3177 36.3538 21.7072C36.4804 22.3502 37.4017 23.6931 38.4016 24.6918C40.1586 26.4465 40.2187 26.7192 40.197 32.8347C40.1759 38.7746 40.0704 39.2777 38.4688 41.0568C35.4797 44.3779 34.0118 47.2719 34.3692 49.139C34.7758 51.2616 38.4777 53.7354 45.5984 56.6433C51.4537 59.0341 51.8239 59.5424 54.0246 68.2191L55.5015 74.0422L50.2881 74.4579C47.4212 74.6865 34.9337 74.9017 22.5377 74.9368L0 75V73.3768C0 70.8008 1.936 62.1305 2.94748 60.1771C3.4545 59.1982 4.24156 58.3975 4.69743 58.3975C6.30799 58.3975 19.8217 51.2488 19.8913 50.3599C19.9303 49.8638 19.9943 48.934 20.0333 48.2942C20.1343 46.6416 17.1127 40.5178 16.1958 40.5178C15.7751 40.5178 15.2674 39.9431 15.068 39.2407L14.3429 36.6865C14.1422 35.9809 14.2854 35.4094 14.6626 35.4094C15.0379 35.4094 15.3448 36.2542 15.3448 37.2874C15.3448 38.3205 15.6722 39.3678 16.0724 39.6149C16.5973 39.9387 16.6702 39.371 16.3339 37.5785C16.0769 36.2114 15.5839 34.9183 15.238 34.705C14.6958 34.3698 14.4101 28.1464 14.7579 24.2346ZM25.6878 20.2366C26.6808 20.3822 27.4928 20.264 27.4928 19.9735C27.4928 19.1376 23.5415 19.4064 21.2589 20.3975C20.1158 20.8936 19.181 21.4422 19.181 21.6171C19.181 21.7915 20.2392 21.4932 21.532 20.953C22.8254 20.4134 24.6955 20.091 25.6878 20.2366ZM27.3093 23.6024C29.8456 23.5986 31.4281 23.4006 30.8258 23.1618C27.8783 21.9939 21.2609 23.1024 19.7411 25.0194C19.0052 25.9466 19.1753 25.9223 20.7794 24.868C22.2391 23.9096 23.8004 23.6069 27.3093 23.6024ZM36.1639 42.7292C37.7386 39.514 37.8691 38.7126 37.557 34.1616C37.089 27.3463 36.7783 26.891 33.6844 28.4816C30.6966 30.018 26.035 30.1387 22.7436 28.7645C19.3447 27.3463 18.8159 27.4599 17.8319 29.822C16.4049 33.2466 16.8128 38.6283 18.8089 42.7023C23.3669 52.0074 31.6129 52.0195 36.1639 42.7292ZM3.13545 36.0479C3.06832 34.8187 3.22113 32.8794 3.4756 31.7376C3.72943 30.5959 4.21279 29.6623 4.5491 29.6623C4.91993 29.6623 4.90011 30.1476 4.49795 30.8973C4.13415 31.5767 3.8362 33.5275 3.8362 35.2331C3.8362 38.1954 3.9142 38.332 5.59446 38.3078C8.02597 38.2733 7.9614 40.1289 5.52093 40.4074C3.70002 40.6155 3.69107 40.6385 3.96216 44.3824C4.18402 47.4385 4.62454 48.632 6.30352 50.7182C7.44095 52.1319 8.07456 53.289 7.7114 53.289C7.34824 53.289 6.25557 52.0891 5.28373 50.623C3.79017 48.3702 3.4967 47.2074 3.38737 43.12C3.31576 40.4597 3.20259 37.2771 3.13545 36.0479ZM33.5668 33.615C32.8635 33.2919 31.8565 32.8679 31.329 32.6725C30.5004 32.366 30.5055 32.3104 31.3667 32.267C31.9146 32.2395 32.9216 32.6636 33.6045 33.2095C34.8257 34.1865 34.825 34.1935 33.5668 33.615ZM22.1643 33.7485C20.9763 34.0339 20.4943 33.9547 20.7634 33.5192C20.9898 33.154 21.9245 32.8551 22.842 32.8551C24.8458 32.8551 24.6143 33.161 22.1643 33.7485ZM23.1022 37.4955C22.1336 38.4629 20.7807 37.1584 21.3139 35.7714C21.5256 35.221 22.0038 34.7708 22.3778 34.7708C23.4136 34.7708 23.9206 36.6782 23.1022 37.4955ZM30.5458 37.4368C30.0426 36.9342 30.0809 36.4611 30.6845 35.7344C31.6832 34.5326 32.8475 34.7836 33.1345 36.2625C33.3858 37.5568 31.5157 38.4055 30.5458 37.4368ZM38.8415 36.2599C38.0864 38.1022 38.229 40.2675 39.0513 39.4463C39.4304 39.0677 39.6465 37.9323 39.5308 36.924C39.3588 35.4189 39.2354 35.2995 38.8415 36.2599ZM5.35917 39.8793C5.88665 39.8793 6.49597 39.5919 6.71335 39.2407C6.93074 38.8895 6.67691 38.6021 6.14943 38.6021C5.62195 38.6021 5.01264 38.8895 4.79525 39.2407C4.57787 39.5919 4.8317 39.8793 5.35917 39.8793ZM25.5664 44.3447C26.6597 44.929 27.2345 44.8805 28.338 44.1104C30.0215 42.9361 30.0502 42.9284 30.0502 43.6334C30.0502 43.9418 29.2133 44.5407 28.1903 44.9635C26.7677 45.5522 26.0031 45.5586 24.9385 44.9897C24.1732 44.5803 23.6911 44.1021 23.8669 43.9265C24.0427 43.7509 24.8074 43.9392 25.5664 44.3447ZM25.6073 50.1811C24.2659 49.7801 22.812 49.0222 22.3753 48.4966C21.2935 47.1946 20.4105 47.2917 20.899 48.6595C22.6278 53.5036 29.3342 54.4269 32.6064 50.2718C33.3206 49.3657 33.8129 48.5324 33.7004 48.4206C33.5885 48.3089 32.2701 48.8236 30.7714 49.5643C28.4096 50.7309 27.7204 50.8133 25.6073 50.1811ZM24.0351 55.7296C25.0274 53.8133 25.0191 53.6517 23.8912 52.8094C20.9329 50.6013 20.4597 50.5719 20.4597 52.5981C20.4597 54.7009 21.6477 57.7589 22.4642 57.7589C22.75 57.7589 23.4571 56.8458 24.0351 55.7296ZM32.5048 58.0782L33.2273 56.1983C33.6243 55.1645 33.8628 53.5649 33.7579 52.6441L33.5668 50.9691L31.4888 52.1881C30.3456 52.858 29.4122 53.5955 29.4141 53.8267C29.416 54.0578 30.1123 55.1089 30.9613 56.1625L32.5048 58.0782ZM24.0696 66.1106C22.539 63.0558 20.9041 58.6344 20.4361 56.2845C19.9687 53.9346 19.4227 52.0342 19.2238 52.0611C19.0244 52.0879 17.4918 52.9429 15.8186 53.9614C14.1454 54.9793 11.2682 56.4409 9.42491 57.2098C7.58161 57.9779 5.87706 58.7749 5.63602 58.9805C5.24089 59.3189 8.53043 72.5269 9.33284 73.8225C9.5157 74.1188 13.5328 74.3614 18.2597 74.3614C18.5698 74.3614 18.8704 74.3617 19.1616 74.3619C23.7884 74.3656 26.0517 74.3675 26.6558 73.3672C27.2343 72.4094 26.2913 70.5327 24.4452 66.8588C24.3239 66.6172 24.1986 66.3679 24.0696 66.1106ZM47.2115 66.8941C48.3029 62.7869 49.0925 59.3234 48.9665 59.1976C48.2607 58.4926 35.0552 52.3165 34.889 52.6134C34.779 52.8094 34.4887 54.3477 34.2438 56.0316C33.9996 57.7161 32.3801 61.9249 30.6461 65.3852C30.4608 65.7549 30.2825 66.1093 30.1115 66.4492L30.1106 66.451C28.1265 70.3941 27.1296 72.3753 27.7401 73.3691C28.3566 74.3727 30.6123 74.3694 35.1459 74.3626C35.5336 74.362 35.938 74.3614 36.3595 74.3614H45.2269L47.2115 66.8941ZM31.9472 58.2647C31.2555 58.0092 30.6896 57.5035 30.6896 57.1408C30.6896 56.1153 29.5925 56.3656 29.1602 57.4901C28.792 58.4486 28.8834 59.2736 29.8105 63.3463C30.1986 65.05 30.2548 65.0072 31.7075 61.9159C33.1761 58.7908 33.1806 58.7206 31.9472 58.2647ZM24.2736 64.7831C24.9021 64.7831 25.7563 58.5686 25.2422 57.7378C24.6725 56.8177 23.8433 56.9901 23.4098 58.1184C23.1988 58.6676 22.7365 58.9383 22.3823 58.7193C21.5479 58.2046 21.5563 58.2742 22.7576 61.7959C23.3183 63.4389 24.0006 64.7831 24.2736 64.7831ZM8.31177 73.9355C8.31177 73.7012 7.54837 70.6125 6.61489 67.071C5.68141 63.5296 4.68528 60.37 4.40076 60.0494C3.74094 59.3055 2.7301 61.9638 1.55942 67.5238L1.47468 67.9256C0.696358 71.6155 0.364087 73.1907 0.994547 73.8627C1.46419 74.3633 2.46805 74.3626 4.21972 74.3615L4.47557 74.3614C6.58548 74.3614 8.31177 74.1699 8.31177 73.9355ZM54.3462 73.0613C54.3462 72.6974 53.7381 69.9777 52.9946 67.0174C52.251 64.057 51.2804 61.1401 50.8373 60.5347C49.9959 59.3853 49.6871 60.1414 47.3259 69.1336C46.9282 70.6476 46.4442 72.3002 46.2505 72.8053C45.9654 73.546 46.7115 73.7229 50.1219 73.7229C52.6103 73.7229 54.3462 73.4509 54.3462 73.0613ZM28.1686 66.0602C28.634 66.7402 28.6999 66.0927 28.3962 63.8252C28.1609 62.0692 27.8611 60.513 27.7306 60.3661C27.1577 59.7257 27.5784 65.1994 28.1686 66.0602ZM18.3818 70.995C17.0634 71.1329 14.9056 71.1329 13.5865 70.995C12.2682 70.8577 13.3468 70.7446 15.9842 70.7446C18.6216 70.7446 19.7008 70.8577 18.3818 70.995Z" fill="black"/>
<path d="M24.7448 2.31286C23.9136 4.30005 23.4002 4.68958 21.0985 5.07782L18.4195 5.52992L20.4789 7.65185C22.28 9.5075 22.484 10.0586 22.1093 12.0553L22.1051 12.0775C21.8748 13.3037 21.753 13.9519 21.9961 14.1482C22.2688 14.3683 23.0005 14.0197 24.5531 13.2801L24.5773 13.2686C26.3982 12.4014 27.129 12.3414 28.4653 12.9493C31.07 14.1351 31.3776 13.9059 30.93 11.1103C30.5669 8.84531 30.7408 8.28721 32.3206 6.64037L34.1256 4.75854H31.7938C30.5106 4.75854 29.1622 4.39967 28.7964 3.96034C28.4307 3.52165 27.5874 2.45079 26.9218 1.58107L25.7128 0L24.7448 2.31286Z" fill="white"/>
</svg>
