<svg width="16" height="17" viewBox="0 0 16 17" fill="none" xmlns="http://www.w3.org/2000/svg">
<g clip-path="url(#clip0_1064_517)">
<path d="M8 16.0218C12.4183 16.0218 16 12.4401 16 8.02182C16 3.60354 12.4183 0.0218201 8 0.0218201C3.58172 0.0218201 0 3.60354 0 8.02182C0 12.4401 3.58172 16.0218 8 16.0218Z" fill="white"/>
<path d="M12.5763 13.1468H10.0822C10.0189 13.0781 9.9184 12.9922 9.8456 12.8869C9.25744 12.0365 8.67888 11.1794 8.08848 10.3305C7.67504 9.73606 7.24464 9.15334 6.82736 8.56166C6.6712 8.34038 6.53056 8.10822 6.36448 7.85302C6.48368 7.84518 6.58112 7.83366 6.67856 7.83318C7.12416 7.83126 7.57088 7.85078 8.01536 7.82694C8.41232 7.80566 8.80864 7.76598 9.18912 7.61526C9.60272 7.45142 9.90224 7.18374 10.0107 6.75798C10.1936 6.04022 10.0443 5.54774 9.36976 5.13638C9.02992 4.92918 8.65728 4.84838 8.2576 4.85046C6.93424 4.85702 5.61088 4.85286 4.27024 4.85286C3.8208 4.21334 3.37056 3.57254 2.89552 2.89654C3.04576 2.89654 3.16144 2.89654 3.27712 2.89654C5.08608 2.89718 6.89504 2.89862 8.704 2.89814C9.13424 2.89814 9.548 2.97158 9.95392 3.11846C10.4086 3.28294 10.8218 3.50294 11.1949 3.81702C11.7053 4.24646 12.0582 4.76598 12.2259 5.40694C12.424 6.16406 12.4014 6.91174 12.0958 7.6415C11.7718 8.41542 11.2174 8.97238 10.4738 9.35142C10.3474 9.41574 10.2222 9.4823 10.0594 9.56726C10.4339 10.1983 10.8858 10.7577 11.2853 11.3508C11.6808 11.938 12.1107 12.502 12.5765 13.1466L12.5763 13.1468Z" fill="url(#paint0_linear_1064_517)"/>
</g>
<defs>
<linearGradient id="paint0_linear_1064_517" x1="5.20992" y1="2.2103" x2="12.9365" y2="11.1034" gradientUnits="userSpaceOnUse">
<stop stop-color="#597FDB"/>
<stop offset="1" stop-color="#1343C1"/>
</linearGradient>
<clipPath id="clip0_1064_517">
<rect width="16" height="16" fill="white" transform="translate(0 0.0218201)"/>
</clipPath>
</defs>
</svg>
